<?xml version="1.0" standalone="no"?><!-- Generator: Gravit.io --><svg xmlns="http://www.w3.org/2000/svg" xmlns:xlink="http://www.w3.org/1999/xlink" style="isolation:isolate" viewBox="0 0 960 400" width="960" height="400"><defs><clipPath id="_clipPath_pxsxpNSl1oQfP9zDIxgppvWvVPH3MTm1"><rect width="960" height="400"/></clipPath></defs><g clip-path="url(#_clipPath_pxsxpNSl1oQfP9zDIxgppvWvVPH3MTm1)"><clipPath id="_clipPath_NjVArZQxo1qrSRShAqkoLtgsEv3QrD7I"><path d=" M 0 0 L 960 0 L 960 720 L 0 720 L 0 0 L 0 0 Z " fill="rgb(255,255,255)"/></clipPath><g clip-path="url(#_clipPath_NjVArZQxo1qrSRShAqkoLtgsEv3QrD7I)"><g id="Group"><path d=" M 190.63 136.759 L 769.37 136.759 L 769.37 378.774 L 190.63 378.774 L 190.63 136.759 Z " fill-rule="evenodd" fill="rgb(102,102,102)"/><path d=" M 190.63 136.759 L 769.37 136.759 L 769.37 378.774 L 190.63 378.774 L 190.63 136.759 Z " fill-rule="evenodd" fill="none" vector-effect="non-scaling-stroke" stroke-width="1" stroke="rgb(102,102,102)" stroke-linejoin="round" stroke-linecap="butt" stroke-miterlimit="10"/><path d=" M 198.889 177.894 L 198.889 177.894 C 198.889 175.224 201.053 173.06 203.723 173.06 L 223.062 173.06 L 223.062 173.06 C 224.344 173.06 225.574 173.569 226.48 174.476 C 227.387 175.382 227.896 176.612 227.896 177.894 L 227.896 199.784 C 227.896 202.454 225.732 204.619 223.062 204.619 L 203.723 204.619 L 203.723 204.619 C 201.053 204.619 198.889 202.454 198.889 199.784 L 198.889 177.894 Z " fill-rule="evenodd" fill="rgb(0,0,0)"/><path d=" M 198.889 177.894 L 198.889 177.894 C 198.889 175.224 201.053 173.06 203.723 173.06 L 223.062 173.06 L 223.062 173.06 C 224.344 173.06 225.574 173.569 226.48 174.476 C 227.387 175.382 227.896 176.612 227.896 177.894 L 227.896 199.784 C 227.896 202.454 225.732 204.619 223.062 204.619 L 203.723 204.619 L 203.723 204.619 C 201.053 204.619 198.889 202.454 198.889 199.784 L 198.889 177.894 Z " fill-rule="evenodd" fill="none" vector-effect="non-scaling-stroke" stroke-width="1" stroke="rgb(0,0,0)" stroke-linejoin="round" stroke-linecap="butt" stroke-miterlimit="10"/><path d=" M 198.89 261.053 L 198.89 261.053 C 198.89 258.148 201.245 255.793 204.15 255.793 L 249.189 255.793 C 250.584 255.793 251.922 256.347 252.908 257.333 C 253.895 258.32 254.449 259.658 254.449 261.053 L 254.449 282.092 C 254.449 284.997 252.094 287.352 249.189 287.352 L 204.15 287.352 C 201.245 287.352 198.89 284.997 198.89 282.092 L 198.89 261.053 Z " fill-rule="evenodd" fill="rgb(0,0,0)"/><path d=" M 198.89 261.053 L 198.89 261.053 C 198.89 258.148 201.245 255.793 204.15 255.793 L 249.189 255.793 C 250.584 255.793 251.922 256.347 252.908 257.333 C 253.895 258.32 254.449 259.658 254.449 261.053 L 254.449 282.092 C 254.449 284.997 252.094 287.352 249.189 287.352 L 204.15 287.352 C 201.245 287.352 198.89 284.997 198.89 282.092 L 198.89 261.053 Z " fill-rule="evenodd" fill="none" vector-effect="non-scaling-stroke" stroke-width="1" stroke="rgb(0,0,0)" stroke-linejoin="round" stroke-linecap="butt" stroke-miterlimit="10"/><path d=" M 198.893 302.42 L 198.893 302.42 C 198.893 299.515 201.248 297.16 204.152 297.16 L 267.963 297.16 C 269.358 297.16 270.696 297.714 271.683 298.701 C 272.669 299.687 273.223 301.025 273.223 302.42 L 273.223 323.459 C 273.223 326.364 270.868 328.719 267.963 328.719 L 204.152 328.719 C 201.247 328.719 198.893 326.364 198.893 323.459 L 198.893 302.42 Z " fill-rule="evenodd" fill="rgb(0,0,0)"/><path d=" M 198.893 302.42 L 198.893 302.42 C 198.893 299.515 201.248 297.16 204.152 297.16 L 267.963 297.16 C 269.358 297.16 270.696 297.714 271.683 298.701 C 272.669 299.687 273.223 301.025 273.223 302.42 L 273.223 323.459 C 273.223 326.364 270.868 328.719 267.963 328.719 L 204.152 328.719 C 201.247 328.719 198.893 326.364 198.893 323.459 L 198.893 302.42 Z " fill-rule="evenodd" fill="none" vector-effect="non-scaling-stroke" stroke-width="1" stroke="rgb(0,0,0)" stroke-linejoin="round" stroke-linecap="butt" stroke-miterlimit="10"/><path d=" M 262.89 149.199 L 262.89 149.199 C 262.89 147.648 264.147 146.391 265.698 146.391 L 289.089 146.391 C 289.834 146.391 290.548 146.687 291.075 147.213 C 291.602 147.74 291.898 148.454 291.898 149.199 L 291.898 160.433 C 291.898 161.984 290.64 163.241 289.089 163.241 L 265.698 163.241 C 264.147 163.241 262.89 161.984 262.89 160.433 L 262.89 149.199 Z " fill-rule="evenodd" fill="rgb(0,0,0)"/><path d=" M 262.89 149.199 L 262.89 149.199 C 262.89 147.648 264.147 146.391 265.698 146.391 L 289.089 146.391 C 289.834 146.391 290.548 146.687 291.075 147.213 C 291.602 147.74 291.898 148.454 291.898 149.199 L 291.898 160.433 C 291.898 161.984 290.64 163.241 289.089 163.241 L 265.698 163.241 C 264.147 163.241 262.89 161.984 262.89 160.433 L 262.89 149.199 Z " fill-rule="evenodd" fill="none" vector-effect="non-scaling-stroke" stroke-width="1" stroke="rgb(0,0,0)" stroke-linejoin="round" stroke-linecap="butt" stroke-miterlimit="10"/><path d=" M 301.901 149.199 L 301.901 149.199 C 301.901 147.648 303.158 146.391 304.709 146.391 L 328.1 146.391 C 328.845 146.391 329.56 146.687 330.086 147.213 C 330.613 147.74 330.909 148.454 330.909 149.199 L 330.909 160.433 C 330.909 161.984 329.652 163.241 328.1 163.241 L 304.709 163.241 C 303.158 163.241 301.901 161.984 301.901 160.433 L 301.901 149.199 Z " fill-rule="evenodd" fill="rgb(0,0,0)"/><path d=" M 301.901 149.199 L 301.901 149.199 C 301.901 147.648 303.158 146.391 304.709 146.391 L 328.1 146.391 C 328.845 146.391 329.56 146.687 330.086 147.213 C 330.613 147.74 330.909 148.454 330.909 149.199 L 330.909 160.433 C 330.909 161.984 329.652 163.241 328.1 163.241 L 304.709 163.241 C 303.158 163.241 301.901 161.984 301.901 160.433 L 301.901 149.199 Z " fill-rule="evenodd" fill="none" vector-effect="non-scaling-stroke" stroke-width="1" stroke="rgb(0,0,0)" stroke-linejoin="round" stroke-linecap="butt" stroke-miterlimit="10"/><path d=" M 340.912 149.199 L 340.912 149.199 C 340.912 147.648 342.17 146.391 343.721 146.391 L 367.112 146.391 C 367.857 146.391 368.571 146.687 369.098 147.213 C 369.624 147.74 369.92 148.454 369.92 149.199 L 369.92 160.433 C 369.92 161.984 368.663 163.241 367.112 163.241 L 343.721 163.241 C 342.17 163.241 340.912 161.984 340.912 160.433 L 340.912 149.199 Z " fill-rule="evenodd" fill="rgb(0,0,0)"/><path d=" M 340.912 149.199 L 340.912 149.199 C 340.912 147.648 342.17 146.391 343.721 146.391 L 367.112 146.391 C 367.857 146.391 368.571 146.687 369.098 147.213 C 369.624 147.74 369.92 148.454 369.92 149.199 L 369.92 160.433 C 369.92 161.984 368.663 163.241 367.112 163.241 L 343.721 163.241 C 342.17 163.241 340.912 161.984 340.912 160.433 L 340.912 149.199 Z " fill-rule="evenodd" fill="none" vector-effect="non-scaling-stroke" stroke-width="1" stroke="rgb(0,0,0)" stroke-linejoin="round" stroke-linecap="butt" stroke-miterlimit="10"/><path d=" M 379.924 149.199 L 379.924 149.199 C 379.924 147.648 381.181 146.391 382.732 146.391 L 406.123 146.391 C 406.868 146.391 407.582 146.687 408.109 147.213 C 408.636 147.74 408.931 148.454 408.931 149.199 L 408.931 160.433 C 408.931 161.984 407.674 163.241 406.123 163.241 L 382.732 163.241 C 381.181 163.241 379.924 161.984 379.924 160.433 L 379.924 149.199 Z " fill-rule="evenodd" fill="rgb(0,0,0)"/><path d=" M 379.924 149.199 L 379.924 149.199 C 379.924 147.648 381.181 146.391 382.732 146.391 L 406.123 146.391 C 406.868 146.391 407.582 146.687 408.109 147.213 C 408.636 147.74 408.931 148.454 408.931 149.199 L 408.931 160.433 C 408.931 161.984 407.674 163.241 406.123 163.241 L 382.732 163.241 C 381.181 163.241 379.924 161.984 379.924 160.433 L 379.924 149.199 Z " fill-rule="evenodd" fill="none" vector-effect="non-scaling-stroke" stroke-width="1" stroke="rgb(0,0,0)" stroke-linejoin="round" stroke-linecap="butt" stroke-miterlimit="10"/><path d=" M 418.935 149.199 L 418.935 149.199 C 418.935 147.648 420.192 146.391 421.743 146.391 L 445.134 146.391 C 445.879 146.391 446.593 146.687 447.12 147.213 C 447.647 147.74 447.943 148.454 447.943 149.199 L 447.943 160.433 C 447.943 161.984 446.685 163.241 445.134 163.241 L 421.743 163.241 C 420.192 163.241 418.935 161.984 418.935 160.433 L 418.935 149.199 Z " fill-rule="evenodd" fill="rgb(0,0,0)"/><path d=" M 418.935 149.199 L 418.935 149.199 C 418.935 147.648 420.192 146.391 421.743 146.391 L 445.134 146.391 C 445.879 146.391 446.593 146.687 447.12 147.213 C 447.647 147.74 447.943 148.454 447.943 149.199 L 447.943 160.433 C 447.943 161.984 446.685 163.241 445.134 163.241 L 421.743 163.241 C 420.192 163.241 418.935 161.984 418.935 160.433 L 418.935 149.199 Z " fill-rule="evenodd" fill="none" vector-effect="non-scaling-stroke" stroke-width="1" stroke="rgb(0,0,0)" stroke-linejoin="round" stroke-linecap="butt" stroke-miterlimit="10"/><path d=" M 457.946 149.199 L 457.946 149.199 C 457.946 147.648 459.203 146.391 460.755 146.391 L 484.146 146.391 C 484.89 146.391 485.605 146.687 486.131 147.213 C 486.658 147.74 486.954 148.454 486.954 149.199 L 486.954 160.433 C 486.954 161.984 485.697 163.241 484.146 163.241 L 460.755 163.241 C 459.203 163.241 457.946 161.984 457.946 160.433 L 457.946 149.199 Z " fill-rule="evenodd" fill="rgb(0,0,0)"/><path d=" M 457.946 149.199 L 457.946 149.199 C 457.946 147.648 459.203 146.391 460.755 146.391 L 484.146 146.391 C 484.89 146.391 485.605 146.687 486.131 147.213 C 486.658 147.74 486.954 148.454 486.954 149.199 L 486.954 160.433 C 486.954 161.984 485.697 163.241 484.146 163.241 L 460.755 163.241 C 459.203 163.241 457.946 161.984 457.946 160.433 L 457.946 149.199 Z " fill-rule="evenodd" fill="none" vector-effect="non-scaling-stroke" stroke-width="1" stroke="rgb(0,0,0)" stroke-linejoin="round" stroke-linecap="butt" stroke-miterlimit="10"/><path d=" M 496.957 149.199 L 496.957 149.199 C 496.957 147.648 498.215 146.391 499.766 146.391 L 523.157 146.391 C 523.902 146.391 524.616 146.687 525.143 147.213 C 525.669 147.74 525.965 148.454 525.965 149.199 L 525.965 160.433 C 525.965 161.984 524.708 163.241 523.157 163.241 L 499.766 163.241 C 498.215 163.241 496.957 161.984 496.957 160.433 L 496.957 149.199 Z " fill-rule="evenodd" fill="rgb(0,0,0)"/><path d=" M 496.957 149.199 L 496.957 149.199 C 496.957 147.648 498.215 146.391 499.766 146.391 L 523.157 146.391 C 523.902 146.391 524.616 146.687 525.143 147.213 C 525.669 147.74 525.965 148.454 525.965 149.199 L 525.965 160.433 C 525.965 161.984 524.708 163.241 523.157 163.241 L 499.766 163.241 C 498.215 163.241 496.957 161.984 496.957 160.433 L 496.957 149.199 Z " fill-rule="evenodd" fill="none" vector-effect="non-scaling-stroke" stroke-width="1" stroke="rgb(0,0,0)" stroke-linejoin="round" stroke-linecap="butt" stroke-miterlimit="10"/><path d=" M 535.969 149.199 L 535.969 149.199 C 535.969 147.648 537.226 146.391 538.777 146.391 L 562.168 146.391 C 562.913 146.391 563.627 146.687 564.154 147.213 C 564.681 147.74 564.976 148.454 564.976 149.199 L 564.976 160.433 C 564.976 161.984 563.719 163.241 562.168 163.241 L 538.777 163.241 C 537.226 163.241 535.969 161.984 535.969 160.433 L 535.969 149.199 Z " fill-rule="evenodd" fill="rgb(0,0,0)"/><path d=" M 535.969 149.199 L 535.969 149.199 C 535.969 147.648 537.226 146.391 538.777 146.391 L 562.168 146.391 C 562.913 146.391 563.627 146.687 564.154 147.213 C 564.681 147.74 564.976 148.454 564.976 149.199 L 564.976 160.433 C 564.976 161.984 563.719 163.241 562.168 163.241 L 538.777 163.241 C 537.226 163.241 535.969 161.984 535.969 160.433 L 535.969 149.199 Z " fill-rule="evenodd" fill="none" vector-effect="non-scaling-stroke" stroke-width="1" stroke="rgb(0,0,0)" stroke-linejoin="round" stroke-linecap="butt" stroke-miterlimit="10"/><path d=" M 574.98 149.199 L 574.98 149.199 C 574.98 147.648 576.237 146.391 577.788 146.391 L 601.179 146.391 C 601.924 146.391 602.638 146.687 603.165 147.213 C 603.692 147.74 603.988 148.454 603.988 149.199 L 603.988 160.433 C 603.988 161.984 602.73 163.241 601.179 163.241 L 577.788 163.241 C 576.237 163.241 574.98 161.984 574.98 160.433 L 574.98 149.199 Z " fill-rule="evenodd" fill="rgb(0,0,0)"/><path d=" M 574.98 149.199 L 574.98 149.199 C 574.98 147.648 576.237 146.391 577.788 146.391 L 601.179 146.391 C 601.924 146.391 602.638 146.687 603.165 147.213 C 603.692 147.74 603.988 148.454 603.988 149.199 L 603.988 160.433 C 603.988 161.984 602.73 163.241 601.179 163.241 L 577.788 163.241 C 576.237 163.241 574.98 161.984 574.98 160.433 L 574.98 149.199 Z " fill-rule="evenodd" fill="none" vector-effect="non-scaling-stroke" stroke-width="1" stroke="rgb(0,0,0)" stroke-linejoin="round" stroke-linecap="butt" stroke-miterlimit="10"/><path d=" M 613.991 149.199 L 613.991 149.199 C 613.991 147.648 615.249 146.391 616.8 146.391 L 640.191 146.391 C 640.935 146.391 641.65 146.687 642.176 147.213 C 642.703 147.74 642.999 148.454 642.999 149.199 L 642.999 160.433 C 642.999 161.984 641.742 163.241 640.191 163.241 L 616.8 163.241 C 615.249 163.241 613.991 161.984 613.991 160.433 L 613.991 149.199 Z " fill-rule="evenodd" fill="rgb(0,0,0)"/><path d=" M 613.991 149.199 L 613.991 149.199 C 613.991 147.648 615.249 146.391 616.8 146.391 L 640.191 146.391 C 640.935 146.391 641.65 146.687 642.176 147.213 C 642.703 147.74 642.999 148.454 642.999 149.199 L 642.999 160.433 C 642.999 161.984 641.742 163.241 640.191 163.241 L 616.8 163.241 C 615.249 163.241 613.991 161.984 613.991 160.433 L 613.991 149.199 Z " fill-rule="evenodd" fill="none" vector-effect="non-scaling-stroke" stroke-width="1" stroke="rgb(0,0,0)" stroke-linejoin="round" stroke-linecap="butt" stroke-miterlimit="10"/><path d=" M 653.002 149.199 L 653.002 149.199 C 653.002 147.648 654.26 146.391 655.811 146.391 L 679.202 146.391 C 679.947 146.391 680.661 146.687 681.188 147.213 C 681.714 147.74 682.01 148.454 682.01 149.199 L 682.01 160.433 C 682.01 161.984 680.753 163.241 679.202 163.241 L 655.811 163.241 C 654.26 163.241 653.002 161.984 653.002 160.433 L 653.002 149.199 Z " fill-rule="evenodd" fill="rgb(0,0,0)"/><path d=" M 653.002 149.199 L 653.002 149.199 C 653.002 147.648 654.26 146.391 655.811 146.391 L 679.202 146.391 C 679.947 146.391 680.661 146.687 681.188 147.213 C 681.714 147.74 682.01 148.454 682.01 149.199 L 682.01 160.433 C 682.01 161.984 680.753 163.241 679.202 163.241 L 655.811 163.241 C 654.26 163.241 653.002 161.984 653.002 160.433 L 653.002 149.199 Z " fill-rule="evenodd" fill="none" vector-effect="non-scaling-stroke" stroke-width="1" stroke="rgb(0,0,0)" stroke-linejoin="round" stroke-linecap="butt" stroke-miterlimit="10"/><path d=" M 692.014 149.199 L 692.014 149.199 C 692.014 147.648 693.271 146.391 694.822 146.391 L 718.213 146.391 C 718.958 146.391 719.672 146.687 720.199 147.213 C 720.726 147.74 721.022 148.454 721.022 149.199 L 721.022 160.433 C 721.022 161.984 719.764 163.241 718.213 163.241 L 694.822 163.241 C 693.271 163.241 692.014 161.984 692.014 160.433 L 692.014 149.199 Z " fill-rule="evenodd" fill="rgb(0,0,0)"/><path d=" M 692.014 149.199 L 692.014 149.199 C 692.014 147.648 693.271 146.391 694.822 146.391 L 718.213 146.391 C 718.958 146.391 719.672 146.687 720.199 147.213 C 720.726 147.74 721.022 148.454 721.022 149.199 L 721.022 160.433 C 721.022 161.984 719.764 163.241 718.213 163.241 L 694.822 163.241 C 693.271 163.241 692.014 161.984 692.014 160.433 L 692.014 149.199 Z " fill-rule="evenodd" fill="none" vector-effect="non-scaling-stroke" stroke-width="1" stroke="rgb(0,0,0)" stroke-linejoin="round" stroke-linecap="butt" stroke-miterlimit="10"/><path d=" M 731.025 149.199 L 731.025 149.199 C 731.025 147.648 732.282 146.391 733.833 146.391 L 757.224 146.391 C 757.969 146.391 758.684 146.687 759.21 147.213 C 759.737 147.74 760.033 148.454 760.033 149.199 L 760.033 160.433 C 760.033 161.984 758.775 163.241 757.224 163.241 L 733.833 163.241 C 732.282 163.241 731.025 161.984 731.025 160.433 L 731.025 149.199 Z " fill-rule="evenodd" fill="rgb(0,0,0)"/><path d=" M 731.025 149.199 L 731.025 149.199 C 731.025 147.648 732.282 146.391 733.833 146.391 L 757.224 146.391 C 757.969 146.391 758.684 146.687 759.21 147.213 C 759.737 147.74 760.033 148.454 760.033 149.199 L 760.033 160.433 C 760.033 161.984 758.775 163.241 757.224 163.241 L 733.833 163.241 C 732.282 163.241 731.025 161.984 731.025 160.433 L 731.025 149.199 Z " fill-rule="evenodd" fill="none" vector-effect="non-scaling-stroke" stroke-width="1" stroke="rgb(0,0,0)" stroke-linejoin="round" stroke-linecap="butt" stroke-miterlimit="10"/><path d=" M 199.785 149.21 L 199.785 149.21 C 199.785 147.659 201.042 146.401 202.593 146.401 L 250.079 146.401 C 250.824 146.401 251.538 146.697 252.065 147.224 C 252.591 147.75 252.887 148.465 252.887 149.21 L 252.887 160.443 C 252.887 161.994 251.63 163.252 250.079 163.252 L 202.593 163.252 C 201.042 163.252 199.785 161.994 199.785 160.443 L 199.785 149.21 Z " fill-rule="evenodd" fill="rgb(0,0,0)"/><path d=" M 199.785 149.21 L 199.785 149.21 C 199.785 147.659 201.042 146.401 202.593 146.401 L 250.079 146.401 C 250.824 146.401 251.538 146.697 252.065 147.224 C 252.591 147.75 252.887 148.465 252.887 149.21 L 252.887 160.443 C 252.887 161.994 251.63 163.252 250.079 163.252 L 202.593 163.252 C 201.042 163.252 199.785 161.994 199.785 160.443 L 199.785 149.21 Z " fill-rule="evenodd" fill="none" vector-effect="non-scaling-stroke" stroke-width="1" stroke="rgb(0,0,0)" stroke-linejoin="round" stroke-linecap="butt" stroke-miterlimit="10"/><path d=" M 238.697 177.894 L 238.697 177.894 C 238.697 175.224 240.862 173.06 243.532 173.06 L 262.87 173.06 L 262.87 173.06 C 264.152 173.06 265.382 173.569 266.289 174.476 C 267.195 175.382 267.705 176.612 267.705 177.894 L 267.705 199.784 C 267.705 202.454 265.54 204.619 262.87 204.619 L 243.532 204.619 L 243.532 204.619 C 240.862 204.619 238.697 202.454 238.697 199.784 L 238.697 177.894 Z " fill-rule="evenodd" fill="rgb(0,0,0)"/><path d=" M 238.697 177.894 L 238.697 177.894 C 238.697 175.224 240.862 173.06 243.532 173.06 L 262.87 173.06 L 262.87 173.06 C 264.152 173.06 265.382 173.569 266.289 174.476 C 267.195 175.382 267.705 176.612 267.705 177.894 L 267.705 199.784 C 267.705 202.454 265.54 204.619 262.87 204.619 L 243.532 204.619 L 243.532 204.619 C 240.862 204.619 238.697 202.454 238.697 199.784 L 238.697 177.894 Z " fill-rule="evenodd" fill="none" vector-effect="non-scaling-stroke" stroke-width="1" stroke="rgb(0,0,0)" stroke-linejoin="round" stroke-linecap="butt" stroke-miterlimit="10"/><path d=" M 716.4 178.32 L 716.4 178.32 C 716.4 175.415 718.754 173.06 721.659 173.06 L 754.762 173.06 C 756.157 173.06 757.495 173.615 758.481 174.601 C 759.467 175.587 760.022 176.925 760.022 178.32 L 760.022 199.359 C 760.022 202.264 757.667 204.619 754.762 204.619 L 721.659 204.619 C 718.754 204.619 716.4 202.264 716.4 199.359 L 716.4 178.32 Z " fill-rule="evenodd" fill="rgb(0,0,0)"/><path d=" M 716.4 178.32 L 716.4 178.32 C 716.4 175.415 718.754 173.06 721.659 173.06 L 754.762 173.06 C 756.157 173.06 757.495 173.615 758.481 174.601 C 759.467 175.587 760.022 176.925 760.022 178.32 L 760.022 199.359 C 760.022 202.264 757.667 204.619 754.762 204.619 L 721.659 204.619 C 718.754 204.619 716.4 202.264 716.4 199.359 L 716.4 178.32 Z " fill-rule="evenodd" fill="none" vector-effect="non-scaling-stroke" stroke-width="1" stroke="rgb(0,0,0)" stroke-linejoin="round" stroke-linecap="butt" stroke-miterlimit="10"/><path d=" M 278.505 177.894 L 278.505 177.894 C 278.505 175.224 280.67 173.06 283.34 173.06 L 302.678 173.06 L 302.678 173.06 C 303.961 173.06 305.19 173.569 306.097 174.476 C 307.004 175.382 307.513 176.612 307.513 177.894 L 307.513 199.784 C 307.513 202.454 305.349 204.619 302.678 204.619 L 283.34 204.619 L 283.34 204.619 C 280.67 204.619 278.505 202.454 278.505 199.784 L 278.505 177.894 Z " fill-rule="evenodd" fill="rgb(0,0,0)"/><path d=" M 278.505 177.894 L 278.505 177.894 C 278.505 175.224 280.67 173.06 283.34 173.06 L 302.678 173.06 L 302.678 173.06 C 303.961 173.06 305.19 173.569 306.097 174.476 C 307.004 175.382 307.513 176.612 307.513 177.894 L 307.513 199.784 C 307.513 202.454 305.349 204.619 302.678 204.619 L 283.34 204.619 L 283.34 204.619 C 280.67 204.619 278.505 202.454 278.505 199.784 L 278.505 177.894 Z " fill-rule="evenodd" fill="none" vector-effect="non-scaling-stroke" stroke-width="1" stroke="rgb(0,0,0)" stroke-linejoin="round" stroke-linecap="butt" stroke-miterlimit="10"/><path d=" M 318.314 177.894 L 318.314 177.894 C 318.314 175.224 320.478 173.06 323.148 173.06 L 342.487 173.06 L 342.487 173.06 C 343.769 173.06 344.999 173.569 345.906 174.476 C 346.812 175.382 347.322 176.612 347.322 177.894 L 347.322 199.784 C 347.322 202.454 345.157 204.619 342.487 204.619 L 323.148 204.619 L 323.148 204.619 C 320.478 204.619 318.314 202.454 318.314 199.784 L 318.314 177.894 Z " fill-rule="evenodd" fill="rgb(0,0,0)"/><path d=" M 318.314 177.894 L 318.314 177.894 C 318.314 175.224 320.478 173.06 323.148 173.06 L 342.487 173.06 L 342.487 173.06 C 343.769 173.06 344.999 173.569 345.906 174.476 C 346.812 175.382 347.322 176.612 347.322 177.894 L 347.322 199.784 C 347.322 202.454 345.157 204.619 342.487 204.619 L 323.148 204.619 L 323.148 204.619 C 320.478 204.619 318.314 202.454 318.314 199.784 L 318.314 177.894 Z " fill-rule="evenodd" fill="none" vector-effect="non-scaling-stroke" stroke-width="1" stroke="rgb(0,0,0)" stroke-linejoin="round" stroke-linecap="butt" stroke-miterlimit="10"/><path d=" M 358.122 177.894 L 358.122 177.894 C 358.122 175.224 360.287 173.06 362.957 173.06 L 382.295 173.06 L 382.295 173.06 C 383.578 173.06 384.807 173.569 385.714 174.476 C 386.621 175.382 387.13 176.612 387.13 177.894 L 387.13 199.784 C 387.13 202.454 384.965 204.619 382.295 204.619 L 362.957 204.619 L 362.957 204.619 C 360.287 204.619 358.122 202.454 358.122 199.784 L 358.122 177.894 Z " fill-rule="evenodd" fill="rgb(0,0,0)"/><path d=" M 358.122 177.894 L 358.122 177.894 C 358.122 175.224 360.287 173.06 362.957 173.06 L 382.295 173.06 L 382.295 173.06 C 383.578 173.06 384.807 173.569 385.714 174.476 C 386.621 175.382 387.13 176.612 387.13 177.894 L 387.13 199.784 C 387.13 202.454 384.965 204.619 382.295 204.619 L 362.957 204.619 L 362.957 204.619 C 360.287 204.619 358.122 202.454 358.122 199.784 L 358.122 177.894 Z " fill-rule="evenodd" fill="none" vector-effect="non-scaling-stroke" stroke-width="1" stroke="rgb(0,0,0)" stroke-linejoin="round" stroke-linecap="butt" stroke-miterlimit="10"/><path d=" M 397.931 177.894 L 397.931 177.894 C 397.931 175.224 400.095 173.06 402.765 173.06 L 422.104 173.06 L 422.104 173.06 C 423.386 173.06 424.616 173.569 425.522 174.476 C 426.429 175.382 426.938 176.612 426.938 177.894 L 426.938 199.784 C 426.938 202.454 424.774 204.619 422.104 204.619 L 402.765 204.619 L 402.765 204.619 C 400.095 204.619 397.931 202.454 397.931 199.784 L 397.931 177.894 Z " fill-rule="evenodd" fill="rgb(0,0,0)"/><path d=" M 397.931 177.894 L 397.931 177.894 C 397.931 175.224 400.095 173.06 402.765 173.06 L 422.104 173.06 L 422.104 173.06 C 423.386 173.06 424.616 173.569 425.522 174.476 C 426.429 175.382 426.938 176.612 426.938 177.894 L 426.938 199.784 C 426.938 202.454 424.774 204.619 422.104 204.619 L 402.765 204.619 L 402.765 204.619 C 400.095 204.619 397.931 202.454 397.931 199.784 L 397.931 177.894 Z " fill-rule="evenodd" fill="none" vector-effect="non-scaling-stroke" stroke-width="1" stroke="rgb(0,0,0)" stroke-linejoin="round" stroke-linecap="butt" stroke-miterlimit="10"/><path d=" M 437.739 177.894 L 437.739 177.894 C 437.739 175.224 439.904 173.06 442.574 173.06 L 461.912 173.06 L 461.912 173.06 C 463.194 173.06 464.424 173.569 465.331 174.476 C 466.237 175.382 466.747 176.612 466.747 177.894 L 466.747 199.784 C 466.747 202.454 464.582 204.619 461.912 204.619 L 442.574 204.619 L 442.574 204.619 C 439.904 204.619 437.739 202.454 437.739 199.784 L 437.739 177.894 Z " fill-rule="evenodd" fill="rgb(0,0,0)"/><path d=" M 437.739 177.894 L 437.739 177.894 C 437.739 175.224 439.904 173.06 442.574 173.06 L 461.912 173.06 L 461.912 173.06 C 463.194 173.06 464.424 173.569 465.331 174.476 C 466.237 175.382 466.747 176.612 466.747 177.894 L 466.747 199.784 C 466.747 202.454 464.582 204.619 461.912 204.619 L 442.574 204.619 L 442.574 204.619 C 439.904 204.619 437.739 202.454 437.739 199.784 L 437.739 177.894 Z " fill-rule="evenodd" fill="none" vector-effect="non-scaling-stroke" stroke-width="1" stroke="rgb(0,0,0)" stroke-linejoin="round" stroke-linecap="butt" stroke-miterlimit="10"/><path d=" M 477.547 177.894 L 477.547 177.894 C 477.547 175.224 479.712 173.06 482.382 173.06 L 501.72 173.06 L 501.72 173.06 C 503.003 173.06 504.232 173.569 505.139 174.476 C 506.046 175.382 506.555 176.612 506.555 177.894 L 506.555 199.784 C 506.555 202.454 504.391 204.619 501.72 204.619 L 482.382 204.619 L 482.382 204.619 C 479.712 204.619 477.547 202.454 477.547 199.784 L 477.547 177.894 Z " fill-rule="evenodd" fill="rgb(0,0,0)"/><path d=" M 477.547 177.894 L 477.547 177.894 C 477.547 175.224 479.712 173.06 482.382 173.06 L 501.72 173.06 L 501.72 173.06 C 503.003 173.06 504.232 173.569 505.139 174.476 C 506.046 175.382 506.555 176.612 506.555 177.894 L 506.555 199.784 C 506.555 202.454 504.391 204.619 501.72 204.619 L 482.382 204.619 L 482.382 204.619 C 479.712 204.619 477.547 202.454 477.547 199.784 L 477.547 177.894 Z " fill-rule="evenodd" fill="none" vector-effect="non-scaling-stroke" stroke-width="1" stroke="rgb(0,0,0)" stroke-linejoin="round" stroke-linecap="butt" stroke-miterlimit="10"/><path d=" M 517.356 177.894 L 517.356 177.894 C 517.356 175.224 519.52 173.06 522.191 173.06 L 541.529 173.06 L 541.529 173.06 C 542.811 173.06 544.041 173.569 544.948 174.476 C 545.854 175.382 546.364 176.612 546.364 177.894 L 546.364 199.784 C 546.364 202.454 544.199 204.619 541.529 204.619 L 522.191 204.619 L 522.191 204.619 C 519.52 204.619 517.356 202.454 517.356 199.784 L 517.356 177.894 Z " fill-rule="evenodd" fill="rgb(0,0,0)"/><path d=" M 517.356 177.894 L 517.356 177.894 C 517.356 175.224 519.52 173.06 522.191 173.06 L 541.529 173.06 L 541.529 173.06 C 542.811 173.06 544.041 173.569 544.948 174.476 C 545.854 175.382 546.364 176.612 546.364 177.894 L 546.364 199.784 C 546.364 202.454 544.199 204.619 541.529 204.619 L 522.191 204.619 L 522.191 204.619 C 519.52 204.619 517.356 202.454 517.356 199.784 L 517.356 177.894 Z " fill-rule="evenodd" fill="none" vector-effect="non-scaling-stroke" stroke-width="1" stroke="rgb(0,0,0)" stroke-linejoin="round" stroke-linecap="butt" stroke-miterlimit="10"/><path d=" M 557.164 177.894 L 557.164 177.894 C 557.164 175.224 559.329 173.06 561.999 173.06 L 581.337 173.06 L 581.337 173.06 C 582.619 173.06 583.849 173.569 584.756 174.476 C 585.663 175.382 586.172 176.612 586.172 177.894 L 586.172 199.784 C 586.172 202.454 584.007 204.619 581.337 204.619 L 561.999 204.619 L 561.999 204.619 C 559.329 204.619 557.164 202.454 557.164 199.784 L 557.164 177.894 Z " fill-rule="evenodd" fill="rgb(0,0,0)"/><path d=" M 557.164 177.894 L 557.164 177.894 C 557.164 175.224 559.329 173.06 561.999 173.06 L 581.337 173.06 L 581.337 173.06 C 582.619 173.06 583.849 173.569 584.756 174.476 C 585.663 175.382 586.172 176.612 586.172 177.894 L 586.172 199.784 C 586.172 202.454 584.007 204.619 581.337 204.619 L 561.999 204.619 L 561.999 204.619 C 559.329 204.619 557.164 202.454 557.164 199.784 L 557.164 177.894 Z " fill-rule="evenodd" fill="none" vector-effect="non-scaling-stroke" stroke-width="1" stroke="rgb(0,0,0)" stroke-linejoin="round" stroke-linecap="butt" stroke-miterlimit="10"/><path d=" M 596.973 177.894 L 596.973 177.894 C 596.973 175.224 599.137 173.06 601.807 173.06 L 621.146 173.06 L 621.146 173.06 C 622.428 173.06 623.658 173.569 624.564 174.476 C 625.471 175.382 625.98 176.612 625.98 177.894 L 625.98 199.784 C 625.98 202.454 623.816 204.619 621.146 204.619 L 601.807 204.619 L 601.807 204.619 C 599.137 204.619 596.973 202.454 596.973 199.784 L 596.973 177.894 Z " fill-rule="evenodd" fill="rgb(0,0,0)"/><path d=" M 596.973 177.894 L 596.973 177.894 C 596.973 175.224 599.137 173.06 601.807 173.06 L 621.146 173.06 L 621.146 173.06 C 622.428 173.06 623.658 173.569 624.564 174.476 C 625.471 175.382 625.98 176.612 625.98 177.894 L 625.98 199.784 C 625.98 202.454 623.816 204.619 621.146 204.619 L 601.807 204.619 L 601.807 204.619 C 599.137 204.619 596.973 202.454 596.973 199.784 L 596.973 177.894 Z " fill-rule="evenodd" fill="none" vector-effect="non-scaling-stroke" stroke-width="1" stroke="rgb(0,0,0)" stroke-linejoin="round" stroke-linecap="butt" stroke-miterlimit="10"/><path d=" M 636.781 177.894 L 636.781 177.894 C 636.781 175.224 638.946 173.06 641.616 173.06 L 660.954 173.06 L 660.954 173.06 C 662.236 173.06 663.466 173.569 664.373 174.476 C 665.279 175.382 665.789 176.612 665.789 177.894 L 665.789 199.784 C 665.789 202.454 663.624 204.619 660.954 204.619 L 641.616 204.619 L 641.616 204.619 C 638.946 204.619 636.781 202.454 636.781 199.784 L 636.781 177.894 Z " fill-rule="evenodd" fill="rgb(0,0,0)"/><path d=" M 636.781 177.894 L 636.781 177.894 C 636.781 175.224 638.946 173.06 641.616 173.06 L 660.954 173.06 L 660.954 173.06 C 662.236 173.06 663.466 173.569 664.373 174.476 C 665.279 175.382 665.789 176.612 665.789 177.894 L 665.789 199.784 C 665.789 202.454 663.624 204.619 660.954 204.619 L 641.616 204.619 L 641.616 204.619 C 638.946 204.619 636.781 202.454 636.781 199.784 L 636.781 177.894 Z " fill-rule="evenodd" fill="none" vector-effect="non-scaling-stroke" stroke-width="1" stroke="rgb(0,0,0)" stroke-linejoin="round" stroke-linecap="butt" stroke-miterlimit="10"/><path d=" M 676.589 177.894 L 676.589 177.894 C 676.589 175.224 678.754 173.06 681.424 173.06 L 700.762 173.06 L 700.762 173.06 C 702.045 173.06 703.274 173.569 704.181 174.476 C 705.088 175.382 705.597 176.612 705.597 177.894 L 705.597 199.784 C 705.597 202.454 703.433 204.619 700.762 204.619 L 681.424 204.619 L 681.424 204.619 C 678.754 204.619 676.589 202.454 676.589 199.784 L 676.589 177.894 Z " fill-rule="evenodd" fill="rgb(0,0,0)"/><path d=" M 676.589 177.894 L 676.589 177.894 C 676.589 175.224 678.754 173.06 681.424 173.06 L 700.762 173.06 L 700.762 173.06 C 702.045 173.06 703.274 173.569 704.181 174.476 C 705.088 175.382 705.597 176.612 705.597 177.894 L 705.597 199.784 C 705.597 202.454 703.433 204.619 700.762 204.619 L 681.424 204.619 L 681.424 204.619 C 678.754 204.619 676.589 202.454 676.589 199.784 L 676.589 177.894 Z " fill-rule="evenodd" fill="none" vector-effect="non-scaling-stroke" stroke-width="1" stroke="rgb(0,0,0)" stroke-linejoin="round" stroke-linecap="butt" stroke-miterlimit="10"/><path d=" M 252.887 219.263 L 252.887 219.263 C 252.887 216.593 255.052 214.428 257.722 214.428 L 277.06 214.428 L 277.06 214.428 C 278.343 214.428 279.572 214.938 280.479 215.844 C 281.386 216.751 281.895 217.981 281.895 219.263 L 281.895 241.153 C 281.895 243.823 279.731 245.987 277.06 245.987 L 257.722 245.987 L 257.722 245.987 C 255.052 245.987 252.887 243.823 252.887 241.153 L 252.887 219.263 Z " fill-rule="evenodd" fill="rgb(0,0,0)"/><path d=" M 252.887 219.263 L 252.887 219.263 C 252.887 216.593 255.052 214.428 257.722 214.428 L 277.06 214.428 L 277.06 214.428 C 278.343 214.428 279.572 214.938 280.479 215.844 C 281.386 216.751 281.895 217.981 281.895 219.263 L 281.895 241.153 C 281.895 243.823 279.731 245.987 277.06 245.987 L 257.722 245.987 L 257.722 245.987 C 255.052 245.987 252.887 243.823 252.887 241.153 L 252.887 219.263 Z " fill-rule="evenodd" fill="none" vector-effect="non-scaling-stroke" stroke-width="1" stroke="rgb(0,0,0)" stroke-linejoin="round" stroke-linecap="butt" stroke-miterlimit="10"/><path d=" M 292.696 219.263 L 292.696 219.263 C 292.696 216.593 294.86 214.428 297.53 214.428 L 316.869 214.428 L 316.869 214.428 C 318.151 214.428 319.381 214.938 320.287 215.844 C 321.194 216.751 321.704 217.981 321.704 219.263 L 321.704 241.153 C 321.704 243.823 319.539 245.987 316.869 245.987 L 297.53 245.987 L 297.53 245.987 C 294.86 245.987 292.696 243.823 292.696 241.153 L 292.696 219.263 Z " fill-rule="evenodd" fill="rgb(0,0,0)"/><path d=" M 292.696 219.263 L 292.696 219.263 C 292.696 216.593 294.86 214.428 297.53 214.428 L 316.869 214.428 L 316.869 214.428 C 318.151 214.428 319.381 214.938 320.287 215.844 C 321.194 216.751 321.704 217.981 321.704 219.263 L 321.704 241.153 C 321.704 243.823 319.539 245.987 316.869 245.987 L 297.53 245.987 L 297.53 245.987 C 294.86 245.987 292.696 243.823 292.696 241.153 L 292.696 219.263 Z " fill-rule="evenodd" fill="none" vector-effect="non-scaling-stroke" stroke-width="1" stroke="rgb(0,0,0)" stroke-linejoin="round" stroke-linecap="butt" stroke-miterlimit="10"/><path d=" M 198.464 219.686 L 198.464 219.686 C 198.464 216.781 200.819 214.427 203.724 214.427 L 236.826 214.427 C 238.221 214.427 239.559 214.981 240.545 215.967 C 241.532 216.954 242.086 218.291 242.086 219.686 L 242.086 240.726 C 242.086 243.631 239.731 245.986 236.826 245.986 L 203.724 245.986 C 200.819 245.986 198.464 243.631 198.464 240.726 L 198.464 219.686 Z " fill-rule="evenodd" fill="rgb(0,0,0)"/><path d=" M 198.464 219.686 L 198.464 219.686 C 198.464 216.781 200.819 214.427 203.724 214.427 L 236.826 214.427 C 238.221 214.427 239.559 214.981 240.545 215.967 C 241.532 216.954 242.086 218.291 242.086 219.686 L 242.086 240.726 C 242.086 243.631 239.731 245.986 236.826 245.986 L 203.724 245.986 C 200.819 245.986 198.464 243.631 198.464 240.726 L 198.464 219.686 Z " fill-rule="evenodd" fill="none" vector-effect="non-scaling-stroke" stroke-width="1" stroke="rgb(0,0,0)" stroke-linejoin="round" stroke-linecap="butt" stroke-miterlimit="10"/><path d=" M 332.504 219.263 L 332.504 219.263 C 332.504 216.593 334.669 214.428 337.339 214.428 L 356.677 214.428 L 356.677 214.428 C 357.959 214.428 359.189 214.938 360.096 215.844 C 361.003 216.751 361.512 217.981 361.512 219.263 L 361.512 241.153 C 361.512 243.823 359.347 245.987 356.677 245.987 L 337.339 245.987 L 337.339 245.987 C 334.669 245.987 332.504 243.823 332.504 241.153 L 332.504 219.263 Z " fill-rule="evenodd" fill="rgb(0,0,0)"/><path d=" M 332.504 219.263 L 332.504 219.263 C 332.504 216.593 334.669 214.428 337.339 214.428 L 356.677 214.428 L 356.677 214.428 C 357.959 214.428 359.189 214.938 360.096 215.844 C 361.003 216.751 361.512 217.981 361.512 219.263 L 361.512 241.153 C 361.512 243.823 359.347 245.987 356.677 245.987 L 337.339 245.987 L 337.339 245.987 C 334.669 245.987 332.504 243.823 332.504 241.153 L 332.504 219.263 Z " fill-rule="evenodd" fill="none" vector-effect="non-scaling-stroke" stroke-width="1" stroke="rgb(0,0,0)" stroke-linejoin="round" stroke-linecap="butt" stroke-miterlimit="10"/><path d=" M 372.312 219.263 L 372.312 219.263 C 372.312 216.593 374.477 214.428 377.147 214.428 L 396.486 214.428 L 396.486 214.428 C 397.768 214.428 398.998 214.938 399.904 215.844 C 400.811 216.751 401.32 217.981 401.32 219.263 L 401.32 241.153 C 401.32 243.823 399.156 245.987 396.486 245.987 L 377.147 245.987 L 377.147 245.987 C 374.477 245.987 372.312 243.823 372.312 241.153 L 372.312 219.263 Z " fill-rule="evenodd" fill="rgb(0,0,0)"/><path d=" M 372.312 219.263 L 372.312 219.263 C 372.312 216.593 374.477 214.428 377.147 214.428 L 396.486 214.428 L 396.486 214.428 C 397.768 214.428 398.998 214.938 399.904 215.844 C 400.811 216.751 401.32 217.981 401.32 219.263 L 401.32 241.153 C 401.32 243.823 399.156 245.987 396.486 245.987 L 377.147 245.987 L 377.147 245.987 C 374.477 245.987 372.312 243.823 372.312 241.153 L 372.312 219.263 Z " fill-rule="evenodd" fill="none" vector-effect="non-scaling-stroke" stroke-width="1" stroke="rgb(0,0,0)" stroke-linejoin="round" stroke-linecap="butt" stroke-miterlimit="10"/><path d=" M 412.121 219.263 L 412.121 219.263 C 412.121 216.593 414.285 214.428 416.956 214.428 L 436.294 214.428 L 436.294 214.428 C 437.576 214.428 438.806 214.938 439.713 215.844 C 440.619 216.751 441.129 217.981 441.129 219.263 L 441.129 241.153 C 441.129 243.823 438.964 245.987 436.294 245.987 L 416.956 245.987 L 416.956 245.987 C 414.285 245.987 412.121 243.823 412.121 241.153 L 412.121 219.263 Z " fill-rule="evenodd" fill="rgb(0,0,0)"/><path d=" M 412.121 219.263 L 412.121 219.263 C 412.121 216.593 414.285 214.428 416.956 214.428 L 436.294 214.428 L 436.294 214.428 C 437.576 214.428 438.806 214.938 439.713 215.844 C 440.619 216.751 441.129 217.981 441.129 219.263 L 441.129 241.153 C 441.129 243.823 438.964 245.987 436.294 245.987 L 416.956 245.987 L 416.956 245.987 C 414.285 245.987 412.121 243.823 412.121 241.153 L 412.121 219.263 Z " fill-rule="evenodd" fill="none" vector-effect="non-scaling-stroke" stroke-width="1" stroke="rgb(0,0,0)" stroke-linejoin="round" stroke-linecap="butt" stroke-miterlimit="10"/><path d=" M 451.929 219.263 L 451.929 219.263 C 451.929 216.593 454.094 214.428 456.764 214.428 L 476.102 214.428 L 476.102 214.428 C 477.385 214.428 478.614 214.938 479.521 215.844 C 480.428 216.751 480.937 217.981 480.937 219.263 L 480.937 241.153 C 480.937 243.823 478.773 245.987 476.102 245.987 L 456.764 245.987 L 456.764 245.987 C 454.094 245.987 451.929 243.823 451.929 241.153 L 451.929 219.263 Z " fill-rule="evenodd" fill="rgb(0,0,0)"/><path d=" M 451.929 219.263 L 451.929 219.263 C 451.929 216.593 454.094 214.428 456.764 214.428 L 476.102 214.428 L 476.102 214.428 C 477.385 214.428 478.614 214.938 479.521 215.844 C 480.428 216.751 480.937 217.981 480.937 219.263 L 480.937 241.153 C 480.937 243.823 478.773 245.987 476.102 245.987 L 456.764 245.987 L 456.764 245.987 C 454.094 245.987 451.929 243.823 451.929 241.153 L 451.929 219.263 Z " fill-rule="evenodd" fill="none" vector-effect="non-scaling-stroke" stroke-width="1" stroke="rgb(0,0,0)" stroke-linejoin="round" stroke-linecap="butt" stroke-miterlimit="10"/><path d=" M 491.738 219.263 L 491.738 219.263 C 491.738 216.593 493.902 214.428 496.572 214.428 L 515.911 214.428 L 515.911 214.428 C 517.193 214.428 518.423 214.938 519.329 215.844 C 520.236 216.751 520.745 217.981 520.745 219.263 L 520.745 241.153 C 520.745 243.823 518.581 245.987 515.911 245.987 L 496.572 245.987 L 496.572 245.987 C 493.902 245.987 491.738 243.823 491.738 241.153 L 491.738 219.263 Z " fill-rule="evenodd" fill="rgb(0,0,0)"/><path d=" M 491.738 219.263 L 491.738 219.263 C 491.738 216.593 493.902 214.428 496.572 214.428 L 515.911 214.428 L 515.911 214.428 C 517.193 214.428 518.423 214.938 519.329 215.844 C 520.236 216.751 520.745 217.981 520.745 219.263 L 520.745 241.153 C 520.745 243.823 518.581 245.987 515.911 245.987 L 496.572 245.987 L 496.572 245.987 C 493.902 245.987 491.738 243.823 491.738 241.153 L 491.738 219.263 Z " fill-rule="evenodd" fill="none" vector-effect="non-scaling-stroke" stroke-width="1" stroke="rgb(0,0,0)" stroke-linejoin="round" stroke-linecap="butt" stroke-miterlimit="10"/><path d=" M 531.546 219.263 L 531.546 219.263 C 531.546 216.593 533.711 214.428 536.381 214.428 L 555.719 214.428 L 555.719 214.428 C 557.001 214.428 558.231 214.938 559.138 215.844 C 560.045 216.751 560.554 217.981 560.554 219.263 L 560.554 241.153 C 560.554 243.823 558.389 245.987 555.719 245.987 L 536.381 245.987 L 536.381 245.987 C 533.711 245.987 531.546 243.823 531.546 241.153 L 531.546 219.263 Z " fill-rule="evenodd" fill="rgb(0,0,0)"/><path d=" M 531.546 219.263 L 531.546 219.263 C 531.546 216.593 533.711 214.428 536.381 214.428 L 555.719 214.428 L 555.719 214.428 C 557.001 214.428 558.231 214.938 559.138 215.844 C 560.045 216.751 560.554 217.981 560.554 219.263 L 560.554 241.153 C 560.554 243.823 558.389 245.987 555.719 245.987 L 536.381 245.987 L 536.381 245.987 C 533.711 245.987 531.546 243.823 531.546 241.153 L 531.546 219.263 Z " fill-rule="evenodd" fill="none" vector-effect="non-scaling-stroke" stroke-width="1" stroke="rgb(0,0,0)" stroke-linejoin="round" stroke-linecap="butt" stroke-miterlimit="10"/><path d=" M 571.354 219.263 L 571.354 219.263 C 571.354 216.593 573.519 214.428 576.189 214.428 L 595.528 214.428 L 595.528 214.428 C 596.81 214.428 598.04 214.938 598.946 215.844 C 599.853 216.751 600.362 217.981 600.362 219.263 L 600.362 241.153 C 600.362 243.823 598.198 245.987 595.528 245.987 L 576.189 245.987 L 576.189 245.987 C 573.519 245.987 571.354 243.823 571.354 241.153 L 571.354 219.263 Z " fill-rule="evenodd" fill="rgb(0,0,0)"/><path d=" M 571.354 219.263 L 571.354 219.263 C 571.354 216.593 573.519 214.428 576.189 214.428 L 595.528 214.428 L 595.528 214.428 C 596.81 214.428 598.04 214.938 598.946 215.844 C 599.853 216.751 600.362 217.981 600.362 219.263 L 600.362 241.153 C 600.362 243.823 598.198 245.987 595.528 245.987 L 576.189 245.987 L 576.189 245.987 C 573.519 245.987 571.354 243.823 571.354 241.153 L 571.354 219.263 Z " fill-rule="evenodd" fill="none" vector-effect="non-scaling-stroke" stroke-width="1" stroke="rgb(0,0,0)" stroke-linejoin="round" stroke-linecap="butt" stroke-miterlimit="10"/><path d=" M 611.163 219.263 L 611.163 219.263 C 611.163 216.593 613.327 214.428 615.998 214.428 L 635.336 214.428 L 635.336 214.428 C 636.618 214.428 637.848 214.938 638.755 215.844 C 639.661 216.751 640.171 217.981 640.171 219.263 L 640.171 241.153 C 640.171 243.823 638.006 245.987 635.336 245.987 L 615.998 245.987 L 615.998 245.987 C 613.327 245.987 611.163 243.823 611.163 241.153 L 611.163 219.263 Z " fill-rule="evenodd" fill="rgb(0,0,0)"/><path d=" M 611.163 219.263 L 611.163 219.263 C 611.163 216.593 613.327 214.428 615.998 214.428 L 635.336 214.428 L 635.336 214.428 C 636.618 214.428 637.848 214.938 638.755 215.844 C 639.661 216.751 640.171 217.981 640.171 219.263 L 640.171 241.153 C 640.171 243.823 638.006 245.987 635.336 245.987 L 615.998 245.987 L 615.998 245.987 C 613.327 245.987 611.163 243.823 611.163 241.153 L 611.163 219.263 Z " fill-rule="evenodd" fill="none" vector-effect="non-scaling-stroke" stroke-width="1" stroke="rgb(0,0,0)" stroke-linejoin="round" stroke-linecap="butt" stroke-miterlimit="10"/><path d=" M 650.971 219.263 L 650.971 219.263 C 650.971 216.593 653.136 214.428 655.806 214.428 L 675.144 214.428 L 675.144 214.428 C 676.427 214.428 677.656 214.938 678.563 215.844 C 679.47 216.751 679.979 217.981 679.979 219.263 L 679.979 241.153 C 679.979 243.823 677.815 245.987 675.144 245.987 L 655.806 245.987 L 655.806 245.987 C 653.136 245.987 650.971 243.823 650.971 241.153 L 650.971 219.263 Z " fill-rule="evenodd" fill="rgb(0,0,0)"/><path d=" M 650.971 219.263 L 650.971 219.263 C 650.971 216.593 653.136 214.428 655.806 214.428 L 675.144 214.428 L 675.144 214.428 C 676.427 214.428 677.656 214.938 678.563 215.844 C 679.47 216.751 679.979 217.981 679.979 219.263 L 679.979 241.153 C 679.979 243.823 677.815 245.987 675.144 245.987 L 655.806 245.987 L 655.806 245.987 C 653.136 245.987 650.971 243.823 650.971 241.153 L 650.971 219.263 Z " fill-rule="evenodd" fill="none" vector-effect="non-scaling-stroke" stroke-width="1" stroke="rgb(0,0,0)" stroke-linejoin="round" stroke-linecap="butt" stroke-miterlimit="10"/><path d=" M 690.78 219.263 L 690.78 219.263 C 690.78 216.593 692.944 214.428 695.614 214.428 L 714.953 214.428 L 714.953 214.428 C 716.235 214.428 717.465 214.938 718.371 215.844 C 719.278 216.751 719.788 217.981 719.788 219.263 L 719.788 241.153 C 719.788 243.823 717.623 245.987 714.953 245.987 L 695.614 245.987 L 695.614 245.987 C 692.944 245.987 690.78 243.823 690.78 241.153 L 690.78 219.263 Z " fill-rule="evenodd" fill="rgb(0,0,0)"/><path d=" M 690.78 219.263 L 690.78 219.263 C 690.78 216.593 692.944 214.428 695.614 214.428 L 714.953 214.428 L 714.953 214.428 C 716.235 214.428 717.465 214.938 718.371 215.844 C 719.278 216.751 719.788 217.981 719.788 219.263 L 719.788 241.153 C 719.788 243.823 717.623 245.987 714.953 245.987 L 695.614 245.987 L 695.614 245.987 C 692.944 245.987 690.78 243.823 690.78 241.153 L 690.78 219.263 Z " fill-rule="evenodd" fill="none" vector-effect="non-scaling-stroke" stroke-width="1" stroke="rgb(0,0,0)" stroke-linejoin="round" stroke-linecap="butt" stroke-miterlimit="10"/><path d=" M 730.588 219.263 L 730.588 219.263 C 730.588 216.593 732.753 214.428 735.423 214.428 L 754.761 214.428 L 754.761 214.428 C 756.043 214.428 757.273 214.938 758.18 215.844 C 759.087 216.751 759.596 217.981 759.596 219.263 L 759.596 241.153 C 759.596 243.823 757.431 245.987 754.761 245.987 L 735.423 245.987 L 735.423 245.987 C 732.753 245.987 730.588 243.823 730.588 241.153 L 730.588 219.263 Z " fill-rule="evenodd" fill="rgb(0,0,0)"/><path d=" M 730.588 219.263 L 730.588 219.263 C 730.588 216.593 732.753 214.428 735.423 214.428 L 754.761 214.428 L 754.761 214.428 C 756.043 214.428 757.273 214.938 758.18 215.844 C 759.087 216.751 759.596 217.981 759.596 219.263 L 759.596 241.153 C 759.596 243.823 757.431 245.987 754.761 245.987 L 735.423 245.987 L 735.423 245.987 C 732.753 245.987 730.588 243.823 730.588 241.153 L 730.588 219.263 Z " fill-rule="evenodd" fill="none" vector-effect="non-scaling-stroke" stroke-width="1" stroke="rgb(0,0,0)" stroke-linejoin="round" stroke-linecap="butt" stroke-miterlimit="10"/><path d=" M 703.142 261.055 L 703.142 261.055 C 703.142 258.15 705.497 255.795 708.402 255.795 L 753.441 255.795 C 754.836 255.795 756.174 256.349 757.16 257.336 C 758.146 258.322 758.701 259.66 758.701 261.055 L 758.701 282.094 C 758.701 284.999 756.346 287.354 753.441 287.354 L 708.402 287.354 C 705.497 287.354 703.142 284.999 703.142 282.094 L 703.142 261.055 Z " fill-rule="evenodd" fill="rgb(0,0,0)"/><path d=" M 703.142 261.055 L 703.142 261.055 C 703.142 258.15 705.497 255.795 708.402 255.795 L 753.441 255.795 C 754.836 255.795 756.174 256.349 757.16 257.336 C 758.146 258.322 758.701 259.66 758.701 261.055 L 758.701 282.094 C 758.701 284.999 756.346 287.354 753.441 287.354 L 708.402 287.354 C 705.497 287.354 703.142 284.999 703.142 282.094 L 703.142 261.055 Z " fill-rule="evenodd" fill="none" vector-effect="non-scaling-stroke" stroke-width="1" stroke="rgb(0,0,0)" stroke-linejoin="round" stroke-linecap="butt" stroke-miterlimit="10"/><path d=" M 265.249 260.631 L 265.249 260.631 C 265.249 257.96 267.414 255.796 270.084 255.796 L 289.423 255.796 L 289.423 255.796 C 290.705 255.796 291.935 256.305 292.841 257.212 C 293.748 258.119 294.257 259.348 294.257 260.631 L 294.257 282.52 C 294.257 285.19 292.093 287.355 289.423 287.355 L 270.084 287.355 L 270.084 287.355 C 267.414 287.355 265.249 285.19 265.249 282.52 L 265.249 260.631 Z " fill-rule="evenodd" fill="rgb(0,0,0)"/><path d=" M 265.249 260.631 L 265.249 260.631 C 265.249 257.96 267.414 255.796 270.084 255.796 L 289.423 255.796 L 289.423 255.796 C 290.705 255.796 291.935 256.305 292.841 257.212 C 293.748 258.119 294.257 259.348 294.257 260.631 L 294.257 282.52 C 294.257 285.19 292.093 287.355 289.423 287.355 L 270.084 287.355 L 270.084 287.355 C 267.414 287.355 265.249 285.19 265.249 282.52 L 265.249 260.631 Z " fill-rule="evenodd" fill="none" vector-effect="non-scaling-stroke" stroke-width="1" stroke="rgb(0,0,0)" stroke-linejoin="round" stroke-linecap="butt" stroke-miterlimit="10"/><path d=" M 305.058 260.631 L 305.058 260.631 C 305.058 257.96 307.222 255.796 309.893 255.796 L 329.231 255.796 L 329.231 255.796 C 330.513 255.796 331.743 256.305 332.65 257.212 C 333.556 258.119 334.066 259.348 334.066 260.631 L 334.066 282.52 C 334.066 285.19 331.901 287.355 329.231 287.355 L 309.893 287.355 L 309.893 287.355 C 307.222 287.355 305.058 285.19 305.058 282.52 L 305.058 260.631 Z " fill-rule="evenodd" fill="rgb(0,0,0)"/><path d=" M 305.058 260.631 L 305.058 260.631 C 305.058 257.96 307.222 255.796 309.893 255.796 L 329.231 255.796 L 329.231 255.796 C 330.513 255.796 331.743 256.305 332.65 257.212 C 333.556 258.119 334.066 259.348 334.066 260.631 L 334.066 282.52 C 334.066 285.19 331.901 287.355 329.231 287.355 L 309.893 287.355 L 309.893 287.355 C 307.222 287.355 305.058 285.19 305.058 282.52 L 305.058 260.631 Z " fill-rule="evenodd" fill="none" vector-effect="non-scaling-stroke" stroke-width="1" stroke="rgb(0,0,0)" stroke-linejoin="round" stroke-linecap="butt" stroke-miterlimit="10"/><path d=" M 344.866 260.631 L 344.866 260.631 C 344.866 257.96 347.031 255.796 349.701 255.796 L 369.039 255.796 L 369.039 255.796 C 370.322 255.796 371.551 256.305 372.458 257.212 C 373.365 258.119 373.874 259.348 373.874 260.631 L 373.874 282.52 C 373.874 285.19 371.71 287.355 369.039 287.355 L 349.701 287.355 L 349.701 287.355 C 347.031 287.355 344.866 285.19 344.866 282.52 L 344.866 260.631 Z " fill-rule="evenodd" fill="rgb(0,0,0)"/><path d=" M 344.866 260.631 L 344.866 260.631 C 344.866 257.96 347.031 255.796 349.701 255.796 L 369.039 255.796 L 369.039 255.796 C 370.322 255.796 371.551 256.305 372.458 257.212 C 373.365 258.119 373.874 259.348 373.874 260.631 L 373.874 282.52 C 373.874 285.19 371.71 287.355 369.039 287.355 L 349.701 287.355 L 349.701 287.355 C 347.031 287.355 344.866 285.19 344.866 282.52 L 344.866 260.631 Z " fill-rule="evenodd" fill="none" vector-effect="non-scaling-stroke" stroke-width="1" stroke="rgb(0,0,0)" stroke-linejoin="round" stroke-linecap="butt" stroke-miterlimit="10"/><path d=" M 384.675 260.631 L 384.675 260.631 C 384.675 257.96 386.839 255.796 389.509 255.796 L 408.848 255.796 L 408.848 255.796 C 410.13 255.796 411.36 256.305 412.266 257.212 C 413.173 258.119 413.683 259.348 413.683 260.631 L 413.683 282.52 C 413.683 285.19 411.518 287.355 408.848 287.355 L 389.509 287.355 L 389.509 287.355 C 386.839 287.355 384.675 285.19 384.675 282.52 L 384.675 260.631 Z " fill-rule="evenodd" fill="rgb(0,0,0)"/><path d=" M 384.675 260.631 L 384.675 260.631 C 384.675 257.96 386.839 255.796 389.509 255.796 L 408.848 255.796 L 408.848 255.796 C 410.13 255.796 411.36 256.305 412.266 257.212 C 413.173 258.119 413.683 259.348 413.683 260.631 L 413.683 282.52 C 413.683 285.19 411.518 287.355 408.848 287.355 L 389.509 287.355 L 389.509 287.355 C 386.839 287.355 384.675 285.19 384.675 282.52 L 384.675 260.631 Z " fill-rule="evenodd" fill="none" vector-effect="non-scaling-stroke" stroke-width="1" stroke="rgb(0,0,0)" stroke-linejoin="round" stroke-linecap="butt" stroke-miterlimit="10"/><path d=" M 424.483 260.631 L 424.483 260.631 C 424.483 257.96 426.648 255.796 429.318 255.796 L 448.656 255.796 L 448.656 255.796 C 449.938 255.796 451.168 256.305 452.075 257.212 C 452.982 258.119 453.491 259.348 453.491 260.631 L 453.491 282.52 C 453.491 285.19 451.326 287.355 448.656 287.355 L 429.318 287.355 L 429.318 287.355 C 426.648 287.355 424.483 285.19 424.483 282.52 L 424.483 260.631 Z " fill-rule="evenodd" fill="rgb(0,0,0)"/><path d=" M 424.483 260.631 L 424.483 260.631 C 424.483 257.96 426.648 255.796 429.318 255.796 L 448.656 255.796 L 448.656 255.796 C 449.938 255.796 451.168 256.305 452.075 257.212 C 452.982 258.119 453.491 259.348 453.491 260.631 L 453.491 282.52 C 453.491 285.19 451.326 287.355 448.656 287.355 L 429.318 287.355 L 429.318 287.355 C 426.648 287.355 424.483 285.19 424.483 282.52 L 424.483 260.631 Z " fill-rule="evenodd" fill="none" vector-effect="non-scaling-stroke" stroke-width="1" stroke="rgb(0,0,0)" stroke-linejoin="round" stroke-linecap="butt" stroke-miterlimit="10"/><path d=" M 464.291 260.631 L 464.291 260.631 C 464.291 257.96 466.456 255.796 469.126 255.796 L 488.465 255.796 L 488.465 255.796 C 489.747 255.796 490.977 256.305 491.883 257.212 C 492.79 258.119 493.299 259.348 493.299 260.631 L 493.299 282.52 C 493.299 285.19 491.135 287.355 488.465 287.355 L 469.126 287.355 L 469.126 287.355 C 466.456 287.355 464.291 285.19 464.291 282.52 L 464.291 260.631 Z " fill-rule="evenodd" fill="rgb(0,0,0)"/><path d=" M 464.291 260.631 L 464.291 260.631 C 464.291 257.96 466.456 255.796 469.126 255.796 L 488.465 255.796 L 488.465 255.796 C 489.747 255.796 490.977 256.305 491.883 257.212 C 492.79 258.119 493.299 259.348 493.299 260.631 L 493.299 282.52 C 493.299 285.19 491.135 287.355 488.465 287.355 L 469.126 287.355 L 469.126 287.355 C 466.456 287.355 464.291 285.19 464.291 282.52 L 464.291 260.631 Z " fill-rule="evenodd" fill="none" vector-effect="non-scaling-stroke" stroke-width="1" stroke="rgb(0,0,0)" stroke-linejoin="round" stroke-linecap="butt" stroke-miterlimit="10"/><path d=" M 504.1 260.631 L 504.1 260.631 C 504.1 257.96 506.264 255.796 508.935 255.796 L 528.273 255.796 L 528.273 255.796 C 529.555 255.796 530.785 256.305 531.692 257.212 C 532.598 258.119 533.108 259.348 533.108 260.631 L 533.108 282.52 C 533.108 285.19 530.943 287.355 528.273 287.355 L 508.935 287.355 L 508.935 287.355 C 506.264 287.355 504.1 285.19 504.1 282.52 L 504.1 260.631 Z " fill-rule="evenodd" fill="rgb(0,0,0)"/><path d=" M 504.1 260.631 L 504.1 260.631 C 504.1 257.96 506.264 255.796 508.935 255.796 L 528.273 255.796 L 528.273 255.796 C 529.555 255.796 530.785 256.305 531.692 257.212 C 532.598 258.119 533.108 259.348 533.108 260.631 L 533.108 282.52 C 533.108 285.19 530.943 287.355 528.273 287.355 L 508.935 287.355 L 508.935 287.355 C 506.264 287.355 504.1 285.19 504.1 282.52 L 504.1 260.631 Z " fill-rule="evenodd" fill="none" vector-effect="non-scaling-stroke" stroke-width="1" stroke="rgb(0,0,0)" stroke-linejoin="round" stroke-linecap="butt" stroke-miterlimit="10"/><path d=" M 543.908 260.631 L 543.908 260.631 C 543.908 257.96 546.073 255.796 548.743 255.796 L 568.081 255.796 L 568.081 255.796 C 569.364 255.796 570.593 256.305 571.5 257.212 C 572.407 258.119 572.916 259.348 572.916 260.631 L 572.916 282.52 C 572.916 285.19 570.752 287.355 568.081 287.355 L 548.743 287.355 L 548.743 287.355 C 546.073 287.355 543.908 285.19 543.908 282.52 L 543.908 260.631 Z " fill-rule="evenodd" fill="rgb(0,0,0)"/><path d=" M 543.908 260.631 L 543.908 260.631 C 543.908 257.96 546.073 255.796 548.743 255.796 L 568.081 255.796 L 568.081 255.796 C 569.364 255.796 570.593 256.305 571.5 257.212 C 572.407 258.119 572.916 259.348 572.916 260.631 L 572.916 282.52 C 572.916 285.19 570.752 287.355 568.081 287.355 L 548.743 287.355 L 548.743 287.355 C 546.073 287.355 543.908 285.19 543.908 282.52 L 543.908 260.631 Z " fill-rule="evenodd" fill="none" vector-effect="non-scaling-stroke" stroke-width="1" stroke="rgb(0,0,0)" stroke-linejoin="round" stroke-linecap="butt" stroke-miterlimit="10"/><path d=" M 583.717 260.631 L 583.717 260.631 C 583.717 257.96 585.881 255.796 588.551 255.796 L 607.89 255.796 L 607.89 255.796 C 609.172 255.796 610.402 256.305 611.308 257.212 C 612.215 258.119 612.724 259.348 612.724 260.631 L 612.724 282.52 C 612.724 285.19 610.56 287.355 607.89 287.355 L 588.551 287.355 L 588.551 287.355 C 585.881 287.355 583.717 285.19 583.717 282.52 L 583.717 260.631 Z " fill-rule="evenodd" fill="rgb(0,0,0)"/><path d=" M 583.717 260.631 L 583.717 260.631 C 583.717 257.96 585.881 255.796 588.551 255.796 L 607.89 255.796 L 607.89 255.796 C 609.172 255.796 610.402 256.305 611.308 257.212 C 612.215 258.119 612.724 259.348 612.724 260.631 L 612.724 282.52 C 612.724 285.19 610.56 287.355 607.89 287.355 L 588.551 287.355 L 588.551 287.355 C 585.881 287.355 583.717 285.19 583.717 282.52 L 583.717 260.631 Z " fill-rule="evenodd" fill="none" vector-effect="non-scaling-stroke" stroke-width="1" stroke="rgb(0,0,0)" stroke-linejoin="round" stroke-linecap="butt" stroke-miterlimit="10"/><path d=" M 623.525 260.631 L 623.525 260.631 C 623.525 257.96 625.69 255.796 628.36 255.796 L 647.698 255.796 L 647.698 255.796 C 648.98 255.796 650.21 256.305 651.117 257.212 C 652.024 258.119 652.533 259.348 652.533 260.631 L 652.533 282.52 C 652.533 285.19 650.368 287.355 647.698 287.355 L 628.36 287.355 L 628.36 287.355 C 625.69 287.355 623.525 285.19 623.525 282.52 L 623.525 260.631 Z " fill-rule="evenodd" fill="rgb(0,0,0)"/><path d=" M 623.525 260.631 L 623.525 260.631 C 623.525 257.96 625.69 255.796 628.36 255.796 L 647.698 255.796 L 647.698 255.796 C 648.98 255.796 650.21 256.305 651.117 257.212 C 652.024 258.119 652.533 259.348 652.533 260.631 L 652.533 282.52 C 652.533 285.19 650.368 287.355 647.698 287.355 L 628.36 287.355 L 628.36 287.355 C 625.69 287.355 623.525 285.19 623.525 282.52 L 623.525 260.631 Z " fill-rule="evenodd" fill="none" vector-effect="non-scaling-stroke" stroke-width="1" stroke="rgb(0,0,0)" stroke-linejoin="round" stroke-linecap="butt" stroke-miterlimit="10"/><path d=" M 663.333 260.631 L 663.333 260.631 C 663.333 257.96 665.498 255.796 668.168 255.796 L 687.507 255.796 L 687.507 255.796 C 688.789 255.796 690.019 256.305 690.925 257.212 C 691.832 258.119 692.341 259.348 692.341 260.631 L 692.341 282.52 C 692.341 285.19 690.177 287.355 687.507 287.355 L 668.168 287.355 L 668.168 287.355 C 665.498 287.355 663.333 285.19 663.333 282.52 L 663.333 260.631 Z " fill-rule="evenodd" fill="rgb(0,0,0)"/><path d=" M 663.333 260.631 L 663.333 260.631 C 663.333 257.96 665.498 255.796 668.168 255.796 L 687.507 255.796 L 687.507 255.796 C 688.789 255.796 690.019 256.305 690.925 257.212 C 691.832 258.119 692.341 259.348 692.341 260.631 L 692.341 282.52 C 692.341 285.19 690.177 287.355 687.507 287.355 L 668.168 287.355 L 668.168 287.355 C 665.498 287.355 663.333 285.19 663.333 282.52 L 663.333 260.631 Z " fill-rule="evenodd" fill="none" vector-effect="non-scaling-stroke" stroke-width="1" stroke="rgb(0,0,0)" stroke-linejoin="round" stroke-linecap="butt" stroke-miterlimit="10"/><path d=" M 682.011 302.423 L 682.011 302.423 C 682.011 299.518 684.366 297.163 687.271 297.163 L 751.081 297.163 C 752.476 297.163 753.814 297.717 754.801 298.703 C 755.787 299.69 756.341 301.028 756.341 302.423 L 756.341 323.462 C 756.341 326.367 753.986 328.722 751.081 328.722 L 687.271 328.722 C 684.366 328.722 682.011 326.367 682.011 323.462 L 682.011 302.423 Z " fill-rule="evenodd" fill="rgb(0,0,0)"/><path d=" M 682.011 302.423 L 682.011 302.423 C 682.011 299.518 684.366 297.163 687.271 297.163 L 751.081 297.163 C 752.476 297.163 753.814 297.717 754.801 298.703 C 755.787 299.69 756.341 301.028 756.341 302.423 L 756.341 323.462 C 756.341 326.367 753.986 328.722 751.081 328.722 L 687.271 328.722 C 684.366 328.722 682.011 326.367 682.011 323.462 L 682.011 302.423 Z " fill-rule="evenodd" fill="none" vector-effect="non-scaling-stroke" stroke-width="1" stroke="rgb(0,0,0)" stroke-linejoin="round" stroke-linecap="butt" stroke-miterlimit="10"/><path d=" M 283.975 301.998 L 283.975 301.998 C 283.975 299.328 286.14 297.163 288.81 297.163 L 308.148 297.163 L 308.148 297.163 C 309.431 297.163 310.66 297.673 311.567 298.579 C 312.474 299.486 312.983 300.716 312.983 301.998 L 312.983 323.888 C 312.983 326.558 310.818 328.722 308.148 328.722 L 288.81 328.722 L 288.81 328.722 C 286.14 328.722 283.975 326.558 283.975 323.888 L 283.975 301.998 Z " fill-rule="evenodd" fill="rgb(0,0,0)"/><path d=" M 283.975 301.998 L 283.975 301.998 C 283.975 299.328 286.14 297.163 288.81 297.163 L 308.148 297.163 L 308.148 297.163 C 309.431 297.163 310.66 297.673 311.567 298.579 C 312.474 299.486 312.983 300.716 312.983 301.998 L 312.983 323.888 C 312.983 326.558 310.818 328.722 308.148 328.722 L 288.81 328.722 L 288.81 328.722 C 286.14 328.722 283.975 326.558 283.975 323.888 L 283.975 301.998 Z " fill-rule="evenodd" fill="none" vector-effect="non-scaling-stroke" stroke-width="1" stroke="rgb(0,0,0)" stroke-linejoin="round" stroke-linecap="butt" stroke-miterlimit="10"/><path d=" M 323.784 301.998 L 323.784 301.998 C 323.784 299.328 325.948 297.163 328.618 297.163 L 347.957 297.163 L 347.957 297.163 C 349.239 297.163 350.469 297.673 351.375 298.579 C 352.282 299.486 352.791 300.716 352.791 301.998 L 352.791 323.888 C 352.791 326.558 350.627 328.722 347.957 328.722 L 328.618 328.722 L 328.618 328.722 C 325.948 328.722 323.784 326.558 323.784 323.888 L 323.784 301.998 Z " fill-rule="evenodd" fill="rgb(0,0,0)"/><path d=" M 323.784 301.998 L 323.784 301.998 C 323.784 299.328 325.948 297.163 328.618 297.163 L 347.957 297.163 L 347.957 297.163 C 349.239 297.163 350.469 297.673 351.375 298.579 C 352.282 299.486 352.791 300.716 352.791 301.998 L 352.791 323.888 C 352.791 326.558 350.627 328.722 347.957 328.722 L 328.618 328.722 L 328.618 328.722 C 325.948 328.722 323.784 326.558 323.784 323.888 L 323.784 301.998 Z " fill-rule="evenodd" fill="none" vector-effect="non-scaling-stroke" stroke-width="1" stroke="rgb(0,0,0)" stroke-linejoin="round" stroke-linecap="butt" stroke-miterlimit="10"/><path d=" M 363.592 301.998 L 363.592 301.998 C 363.592 299.328 365.757 297.163 368.427 297.163 L 387.765 297.163 L 387.765 297.163 C 389.047 297.163 390.277 297.673 391.184 298.579 C 392.09 299.486 392.6 300.716 392.6 301.998 L 392.6 323.888 C 392.6 326.558 390.435 328.722 387.765 328.722 L 368.427 328.722 L 368.427 328.722 C 365.757 328.722 363.592 326.558 363.592 323.888 L 363.592 301.998 Z " fill-rule="evenodd" fill="rgb(0,0,0)"/><path d=" M 363.592 301.998 L 363.592 301.998 C 363.592 299.328 365.757 297.163 368.427 297.163 L 387.765 297.163 L 387.765 297.163 C 389.047 297.163 390.277 297.673 391.184 298.579 C 392.09 299.486 392.6 300.716 392.6 301.998 L 392.6 323.888 C 392.6 326.558 390.435 328.722 387.765 328.722 L 368.427 328.722 L 368.427 328.722 C 365.757 328.722 363.592 326.558 363.592 323.888 L 363.592 301.998 Z " fill-rule="evenodd" fill="none" vector-effect="non-scaling-stroke" stroke-width="1" stroke="rgb(0,0,0)" stroke-linejoin="round" stroke-linecap="butt" stroke-miterlimit="10"/><path d=" M 403.4 301.998 L 403.4 301.998 C 403.4 299.328 405.565 297.163 408.235 297.163 L 427.573 297.163 L 427.573 297.163 C 428.856 297.163 430.085 297.673 430.992 298.579 C 431.899 299.486 432.408 300.716 432.408 301.998 L 432.408 323.888 C 432.408 326.558 430.244 328.722 427.573 328.722 L 408.235 328.722 L 408.235 328.722 C 405.565 328.722 403.4 326.558 403.4 323.888 L 403.4 301.998 Z " fill-rule="evenodd" fill="rgb(0,0,0)"/><path d=" M 403.4 301.998 L 403.4 301.998 C 403.4 299.328 405.565 297.163 408.235 297.163 L 427.573 297.163 L 427.573 297.163 C 428.856 297.163 430.085 297.673 430.992 298.579 C 431.899 299.486 432.408 300.716 432.408 301.998 L 432.408 323.888 C 432.408 326.558 430.244 328.722 427.573 328.722 L 408.235 328.722 L 408.235 328.722 C 405.565 328.722 403.4 326.558 403.4 323.888 L 403.4 301.998 Z " fill-rule="evenodd" fill="none" vector-effect="non-scaling-stroke" stroke-width="1" stroke="rgb(0,0,0)" stroke-linejoin="round" stroke-linecap="butt" stroke-miterlimit="10"/><path d=" M 443.209 301.998 L 443.209 301.998 C 443.209 299.328 445.373 297.163 448.044 297.163 L 467.382 297.163 L 467.382 297.163 C 468.664 297.163 469.894 297.673 470.801 298.579 C 471.707 299.486 472.217 300.716 472.217 301.998 L 472.217 323.888 C 472.217 326.558 470.052 328.722 467.382 328.722 L 448.044 328.722 L 448.044 328.722 C 445.373 328.722 443.209 326.558 443.209 323.888 L 443.209 301.998 Z " fill-rule="evenodd" fill="rgb(0,0,0)"/><path d=" M 443.209 301.998 L 443.209 301.998 C 443.209 299.328 445.373 297.163 448.044 297.163 L 467.382 297.163 L 467.382 297.163 C 468.664 297.163 469.894 297.673 470.801 298.579 C 471.707 299.486 472.217 300.716 472.217 301.998 L 472.217 323.888 C 472.217 326.558 470.052 328.722 467.382 328.722 L 448.044 328.722 L 448.044 328.722 C 445.373 328.722 443.209 326.558 443.209 323.888 L 443.209 301.998 Z " fill-rule="evenodd" fill="none" vector-effect="non-scaling-stroke" stroke-width="1" stroke="rgb(0,0,0)" stroke-linejoin="round" stroke-linecap="butt" stroke-miterlimit="10"/><path d=" M 483.017 301.998 L 483.017 301.998 C 483.017 299.328 485.182 297.163 487.852 297.163 L 507.19 297.163 L 507.19 297.163 C 508.473 297.163 509.702 297.673 510.609 298.579 C 511.516 299.486 512.025 300.716 512.025 301.998 L 512.025 323.888 C 512.025 326.558 509.86 328.722 507.19 328.722 L 487.852 328.722 L 487.852 328.722 C 485.182 328.722 483.017 326.558 483.017 323.888 L 483.017 301.998 Z " fill-rule="evenodd" fill="rgb(0,0,0)"/><path d=" M 483.017 301.998 L 483.017 301.998 C 483.017 299.328 485.182 297.163 487.852 297.163 L 507.19 297.163 L 507.19 297.163 C 508.473 297.163 509.702 297.673 510.609 298.579 C 511.516 299.486 512.025 300.716 512.025 301.998 L 512.025 323.888 C 512.025 326.558 509.86 328.722 507.19 328.722 L 487.852 328.722 L 487.852 328.722 C 485.182 328.722 483.017 326.558 483.017 323.888 L 483.017 301.998 Z " fill-rule="evenodd" fill="none" vector-effect="non-scaling-stroke" stroke-width="1" stroke="rgb(0,0,0)" stroke-linejoin="round" stroke-linecap="butt" stroke-miterlimit="10"/><path d=" M 522.826 301.998 L 522.826 301.998 C 522.826 299.328 524.99 297.163 527.66 297.163 L 546.999 297.163 L 546.999 297.163 C 548.281 297.163 549.511 297.673 550.417 298.579 C 551.324 299.486 551.833 300.716 551.833 301.998 L 551.833 323.888 C 551.833 326.558 549.669 328.722 546.999 328.722 L 527.66 328.722 L 527.66 328.722 C 524.99 328.722 522.826 326.558 522.826 323.888 L 522.826 301.998 Z " fill-rule="evenodd" fill="rgb(0,0,0)"/><path d=" M 522.826 301.998 L 522.826 301.998 C 522.826 299.328 524.99 297.163 527.66 297.163 L 546.999 297.163 L 546.999 297.163 C 548.281 297.163 549.511 297.673 550.417 298.579 C 551.324 299.486 551.833 300.716 551.833 301.998 L 551.833 323.888 C 551.833 326.558 549.669 328.722 546.999 328.722 L 527.66 328.722 L 527.66 328.722 C 524.99 328.722 522.826 326.558 522.826 323.888 L 522.826 301.998 Z " fill-rule="evenodd" fill="none" vector-effect="non-scaling-stroke" stroke-width="1" stroke="rgb(0,0,0)" stroke-linejoin="round" stroke-linecap="butt" stroke-miterlimit="10"/><path d=" M 562.634 301.998 L 562.634 301.998 C 562.634 299.328 564.799 297.163 567.469 297.163 L 586.807 297.163 L 586.807 297.163 C 588.089 297.163 589.319 297.673 590.226 298.579 C 591.132 299.486 591.642 300.716 591.642 301.998 L 591.642 323.888 C 591.642 326.558 589.477 328.722 586.807 328.722 L 567.469 328.722 L 567.469 328.722 C 564.799 328.722 562.634 326.558 562.634 323.888 L 562.634 301.998 Z " fill-rule="evenodd" fill="rgb(0,0,0)"/><path d=" M 562.634 301.998 L 562.634 301.998 C 562.634 299.328 564.799 297.163 567.469 297.163 L 586.807 297.163 L 586.807 297.163 C 588.089 297.163 589.319 297.673 590.226 298.579 C 591.132 299.486 591.642 300.716 591.642 301.998 L 591.642 323.888 C 591.642 326.558 589.477 328.722 586.807 328.722 L 567.469 328.722 L 567.469 328.722 C 564.799 328.722 562.634 326.558 562.634 323.888 L 562.634 301.998 Z " fill-rule="evenodd" fill="none" vector-effect="non-scaling-stroke" stroke-width="1" stroke="rgb(0,0,0)" stroke-linejoin="round" stroke-linecap="butt" stroke-miterlimit="10"/><path d=" M 602.442 301.998 L 602.442 301.998 C 602.442 299.328 604.607 297.163 607.277 297.163 L 626.615 297.163 L 626.615 297.163 C 627.898 297.163 629.128 297.673 630.034 298.579 C 630.941 299.486 631.45 300.716 631.45 301.998 L 631.45 323.888 C 631.45 326.558 629.286 328.722 626.615 328.722 L 607.277 328.722 L 607.277 328.722 C 604.607 328.722 602.442 326.558 602.442 323.888 L 602.442 301.998 Z " fill-rule="evenodd" fill="rgb(0,0,0)"/><path d=" M 602.442 301.998 L 602.442 301.998 C 602.442 299.328 604.607 297.163 607.277 297.163 L 626.615 297.163 L 626.615 297.163 C 627.898 297.163 629.128 297.673 630.034 298.579 C 630.941 299.486 631.45 300.716 631.45 301.998 L 631.45 323.888 C 631.45 326.558 629.286 328.722 626.615 328.722 L 607.277 328.722 L 607.277 328.722 C 604.607 328.722 602.442 326.558 602.442 323.888 L 602.442 301.998 Z " fill-rule="evenodd" fill="none" vector-effect="non-scaling-stroke" stroke-width="1" stroke="rgb(0,0,0)" stroke-linejoin="round" stroke-linecap="butt" stroke-miterlimit="10"/><path d=" M 642.251 301.998 L 642.251 301.998 C 642.251 299.328 644.415 297.163 647.086 297.163 L 666.424 297.163 L 666.424 297.163 C 667.706 297.163 668.936 297.673 669.843 298.579 C 670.749 299.486 671.259 300.716 671.259 301.998 L 671.259 323.888 C 671.259 326.558 669.094 328.722 666.424 328.722 L 647.086 328.722 L 647.086 328.722 C 644.415 328.722 642.251 326.558 642.251 323.888 L 642.251 301.998 Z " fill-rule="evenodd" fill="rgb(0,0,0)"/><path d=" M 642.251 301.998 L 642.251 301.998 C 642.251 299.328 644.415 297.163 647.086 297.163 L 666.424 297.163 L 666.424 297.163 C 667.706 297.163 668.936 297.673 669.843 298.579 C 670.749 299.486 671.259 300.716 671.259 301.998 L 671.259 323.888 C 671.259 326.558 669.094 328.722 666.424 328.722 L 647.086 328.722 L 647.086 328.722 C 644.415 328.722 642.251 326.558 642.251 323.888 L 642.251 301.998 Z " fill-rule="evenodd" fill="none" vector-effect="non-scaling-stroke" stroke-width="1" stroke="rgb(0,0,0)" stroke-linejoin="round" stroke-linecap="butt" stroke-miterlimit="10"/><path d=" M 198.465 343.365 L 198.465 343.365 C 198.465 340.695 200.629 338.531 203.299 338.531 L 222.638 338.531 L 222.638 338.531 C 223.92 338.531 225.15 339.04 226.056 339.947 C 226.963 340.853 227.473 342.083 227.473 343.365 L 227.473 365.255 C 227.473 367.925 225.308 370.09 222.638 370.09 L 203.299 370.09 L 203.299 370.09 C 200.629 370.09 198.465 367.925 198.465 365.255 L 198.465 343.365 Z " fill-rule="evenodd" fill="rgb(0,0,0)"/><path d=" M 198.465 343.365 L 198.465 343.365 C 198.465 340.695 200.629 338.531 203.299 338.531 L 222.638 338.531 L 222.638 338.531 C 223.92 338.531 225.15 339.04 226.056 339.947 C 226.963 340.853 227.473 342.083 227.473 343.365 L 227.473 365.255 C 227.473 367.925 225.308 370.09 222.638 370.09 L 203.299 370.09 L 203.299 370.09 C 200.629 370.09 198.465 367.925 198.465 365.255 L 198.465 343.365 Z " fill-rule="evenodd" fill="none" vector-effect="non-scaling-stroke" stroke-width="1" stroke="rgb(0,0,0)" stroke-linejoin="round" stroke-linecap="butt" stroke-miterlimit="10"/><path d=" M 238.273 343.365 L 238.273 343.365 C 238.273 340.695 240.438 338.531 243.108 338.531 L 262.446 338.531 L 262.446 338.531 C 263.728 338.531 264.958 339.04 265.865 339.947 C 266.772 340.853 267.281 342.083 267.281 343.365 L 267.281 365.255 C 267.281 367.925 265.116 370.09 262.446 370.09 L 243.108 370.09 L 243.108 370.09 C 240.438 370.09 238.273 367.925 238.273 365.255 L 238.273 343.365 Z " fill-rule="evenodd" fill="rgb(0,0,0)"/><path d=" M 238.273 343.365 L 238.273 343.365 C 238.273 340.695 240.438 338.531 243.108 338.531 L 262.446 338.531 L 262.446 338.531 C 263.728 338.531 264.958 339.04 265.865 339.947 C 266.772 340.853 267.281 342.083 267.281 343.365 L 267.281 365.255 C 267.281 367.925 265.116 370.09 262.446 370.09 L 243.108 370.09 L 243.108 370.09 C 240.438 370.09 238.273 367.925 238.273 365.255 L 238.273 343.365 Z " fill-rule="evenodd" fill="none" vector-effect="non-scaling-stroke" stroke-width="1" stroke="rgb(0,0,0)" stroke-linejoin="round" stroke-linecap="butt" stroke-miterlimit="10"/><path d=" M 278.081 343.365 L 278.081 343.365 C 278.081 340.695 280.246 338.531 282.916 338.531 L 302.255 338.531 L 302.255 338.531 C 303.537 338.531 304.767 339.04 305.673 339.947 C 306.58 340.853 307.089 342.083 307.089 343.365 L 307.089 365.255 C 307.089 367.925 304.925 370.09 302.255 370.09 L 282.916 370.09 L 282.916 370.09 C 280.246 370.09 278.081 367.925 278.081 365.255 L 278.081 343.365 Z " fill-rule="evenodd" fill="rgb(0,0,0)"/><path d=" M 278.081 343.365 L 278.081 343.365 C 278.081 340.695 280.246 338.531 282.916 338.531 L 302.255 338.531 L 302.255 338.531 C 303.537 338.531 304.767 339.04 305.673 339.947 C 306.58 340.853 307.089 342.083 307.089 343.365 L 307.089 365.255 C 307.089 367.925 304.925 370.09 302.255 370.09 L 282.916 370.09 L 282.916 370.09 C 280.246 370.09 278.081 367.925 278.081 365.255 L 278.081 343.365 Z " fill-rule="evenodd" fill="none" vector-effect="non-scaling-stroke" stroke-width="1" stroke="rgb(0,0,0)" stroke-linejoin="round" stroke-linecap="butt" stroke-miterlimit="10"/><path d=" M 317.89 343.79 L 317.89 343.79 C 317.89 340.885 320.245 338.53 323.15 338.53 L 347.527 338.53 C 348.922 338.53 350.26 339.084 351.247 340.071 C 352.233 341.057 352.787 342.395 352.787 343.79 L 352.787 364.829 C 352.787 367.734 350.432 370.089 347.527 370.089 L 323.15 370.089 C 320.245 370.089 317.89 367.734 317.89 364.829 L 317.89 343.79 Z " fill-rule="evenodd" fill="rgb(0,0,0)"/><path d=" M 317.89 343.79 L 317.89 343.79 C 317.89 340.885 320.245 338.53 323.15 338.53 L 347.527 338.53 C 348.922 338.53 350.26 339.084 351.247 340.071 C 352.233 341.057 352.787 342.395 352.787 343.79 L 352.787 364.829 C 352.787 367.734 350.432 370.089 347.527 370.089 L 323.15 370.089 C 320.245 370.089 317.89 367.734 317.89 364.829 L 317.89 343.79 Z " fill-rule="evenodd" fill="none" vector-effect="non-scaling-stroke" stroke-width="1" stroke="rgb(0,0,0)" stroke-linejoin="round" stroke-linecap="butt" stroke-miterlimit="10"/><path d=" M 363.587 343.79 L 363.587 343.79 C 363.587 340.885 365.942 338.53 368.847 338.53 L 546.579 338.53 C 547.974 338.53 549.312 339.084 550.299 340.071 C 551.285 341.057 551.839 342.395 551.839 343.79 L 551.839 364.829 C 551.839 367.734 549.484 370.089 546.579 370.089 L 368.847 370.089 C 365.942 370.089 363.587 367.734 363.587 364.829 L 363.587 343.79 Z " fill-rule="evenodd" fill="rgb(0,0,0)"/><path d=" M 363.587 343.79 L 363.587 343.79 C 363.587 340.885 365.942 338.53 368.847 338.53 L 546.579 338.53 C 547.974 338.53 549.312 339.084 550.299 340.071 C 551.285 341.057 551.839 342.395 551.839 343.79 L 551.839 364.829 C 551.839 367.734 549.484 370.089 546.579 370.089 L 368.847 370.089 C 365.942 370.089 363.587 367.734 363.587 364.829 L 363.587 343.79 Z " fill-rule="evenodd" fill="none" vector-effect="non-scaling-stroke" stroke-width="1" stroke="rgb(0,0,0)" stroke-linejoin="round" stroke-linecap="butt" stroke-miterlimit="10"/><path d=" M 562.64 343.79 L 562.64 343.79 C 562.64 340.885 564.995 338.53 567.9 338.53 L 592.278 338.53 C 593.673 338.53 595.011 339.084 595.997 340.071 C 596.984 341.057 597.538 342.395 597.538 343.79 L 597.538 364.829 C 597.538 367.734 595.183 370.089 592.278 370.089 L 567.9 370.089 C 564.995 370.089 562.64 367.734 562.64 364.829 L 562.64 343.79 Z " fill-rule="evenodd" fill="rgb(0,0,0)"/><path d=" M 562.64 343.79 L 562.64 343.79 C 562.64 340.885 564.995 338.53 567.9 338.53 L 592.278 338.53 C 593.673 338.53 595.011 339.084 595.997 340.071 C 596.984 341.057 597.538 342.395 597.538 343.79 L 597.538 364.829 C 597.538 367.734 595.183 370.089 592.278 370.089 L 567.9 370.089 C 564.995 370.089 562.64 367.734 562.64 364.829 L 562.64 343.79 Z " fill-rule="evenodd" fill="none" vector-effect="non-scaling-stroke" stroke-width="1" stroke="rgb(0,0,0)" stroke-linejoin="round" stroke-linecap="butt" stroke-miterlimit="10"/><path d=" M 608.339 343.365 L 608.339 343.365 C 608.339 340.695 610.503 338.531 613.173 338.531 L 632.512 338.531 L 632.512 338.531 C 633.794 338.531 635.024 339.04 635.93 339.947 C 636.837 340.853 637.347 342.083 637.347 343.365 L 637.347 365.255 C 637.347 367.925 635.182 370.09 632.512 370.09 L 613.173 370.09 L 613.173 370.09 C 610.503 370.09 608.339 367.925 608.339 365.255 L 608.339 343.365 Z " fill-rule="evenodd" fill="rgb(0,0,0)"/><path d=" M 608.339 343.365 L 608.339 343.365 C 608.339 340.695 610.503 338.531 613.173 338.531 L 632.512 338.531 L 632.512 338.531 C 633.794 338.531 635.024 339.04 635.93 339.947 C 636.837 340.853 637.347 342.083 637.347 343.365 L 637.347 365.255 C 637.347 367.925 635.182 370.09 632.512 370.09 L 613.173 370.09 L 613.173 370.09 C 610.503 370.09 608.339 367.925 608.339 365.255 L 608.339 343.365 Z " fill-rule="evenodd" fill="none" vector-effect="non-scaling-stroke" stroke-width="1" stroke="rgb(0,0,0)" stroke-linejoin="round" stroke-linecap="butt" stroke-miterlimit="10"/><path d=" M 648.147 343.365 L 648.147 343.365 C 648.147 340.695 650.312 338.531 652.982 338.531 L 672.32 338.531 L 672.32 338.531 C 673.602 338.531 674.832 339.04 675.739 339.947 C 676.646 340.853 677.155 342.083 677.155 343.365 L 677.155 365.255 C 677.155 367.925 674.99 370.09 672.32 370.09 L 652.982 370.09 L 652.982 370.09 C 650.312 370.09 648.147 367.925 648.147 365.255 L 648.147 343.365 Z " fill-rule="evenodd" fill="rgb(0,0,0)"/><path d=" M 648.147 343.365 L 648.147 343.365 C 648.147 340.695 650.312 338.531 652.982 338.531 L 672.32 338.531 L 672.32 338.531 C 673.602 338.531 674.832 339.04 675.739 339.947 C 676.646 340.853 677.155 342.083 677.155 343.365 L 677.155 365.255 C 677.155 367.925 674.99 370.09 672.32 370.09 L 652.982 370.09 L 652.982 370.09 C 650.312 370.09 648.147 367.925 648.147 365.255 L 648.147 343.365 Z " fill-rule="evenodd" fill="none" vector-effect="non-scaling-stroke" stroke-width="1" stroke="rgb(0,0,0)" stroke-linejoin="round" stroke-linecap="butt" stroke-miterlimit="10"/><path d=" M 687.955 340.819 L 687.955 340.819 C 687.955 339.555 688.98 338.53 690.244 338.53 L 714.675 338.53 C 715.282 338.53 715.864 338.771 716.293 339.2 C 716.722 339.63 716.963 340.212 716.963 340.819 L 716.963 349.974 C 716.963 351.238 715.939 352.262 714.675 352.262 L 690.244 352.262 C 688.98 352.262 687.955 351.238 687.955 349.974 L 687.955 340.819 Z " fill-rule="evenodd" fill="rgb(0,0,0)"/><path d=" M 687.955 340.819 L 687.955 340.819 C 687.955 339.555 688.98 338.53 690.244 338.53 L 714.675 338.53 C 715.282 338.53 715.864 338.771 716.293 339.2 C 716.722 339.63 716.963 340.212 716.963 340.819 L 716.963 349.974 C 716.963 351.238 715.939 352.262 714.675 352.262 L 690.244 352.262 C 688.98 352.262 687.955 351.238 687.955 349.974 L 687.955 340.819 Z " fill-rule="evenodd" fill="none" vector-effect="non-scaling-stroke" stroke-width="1" stroke="rgb(0,0,0)" stroke-linejoin="round" stroke-linecap="butt" stroke-miterlimit="10"/><path d=" M 727.764 343.365 L 727.764 343.365 C 727.764 340.695 729.928 338.531 732.599 338.531 L 751.937 338.531 L 751.937 338.531 C 753.219 338.531 754.449 339.04 755.356 339.947 C 756.262 340.853 756.772 342.083 756.772 343.365 L 756.772 365.255 C 756.772 367.925 754.607 370.09 751.937 370.09 L 732.599 370.09 L 732.599 370.09 C 729.928 370.09 727.764 367.925 727.764 365.255 L 727.764 343.365 Z " fill-rule="evenodd" fill="rgb(0,0,0)"/><path d=" M 727.764 343.365 L 727.764 343.365 C 727.764 340.695 729.928 338.531 732.599 338.531 L 751.937 338.531 L 751.937 338.531 C 753.219 338.531 754.449 339.04 755.356 339.947 C 756.262 340.853 756.772 342.083 756.772 343.365 L 756.772 365.255 C 756.772 367.925 754.607 370.09 751.937 370.09 L 732.599 370.09 L 732.599 370.09 C 729.928 370.09 727.764 367.925 727.764 365.255 L 727.764 343.365 Z " fill-rule="evenodd" fill="none" vector-effect="non-scaling-stroke" stroke-width="1" stroke="rgb(0,0,0)" stroke-linejoin="round" stroke-linecap="butt" stroke-miterlimit="10"/><path d=" M 688.147 358.646 L 688.147 358.646 C 688.147 357.382 689.172 356.357 690.436 356.357 L 714.866 356.357 C 715.473 356.357 716.055 356.598 716.485 357.027 C 716.914 357.456 717.155 358.039 717.155 358.646 L 717.155 367.8 C 717.155 369.064 716.13 370.089 714.866 370.089 L 690.436 370.089 C 689.172 370.089 688.147 369.064 688.147 367.8 L 688.147 358.646 Z " fill-rule="evenodd" fill="rgb(0,0,0)"/><path d=" M 688.147 358.646 L 688.147 358.646 C 688.147 357.382 689.172 356.357 690.436 356.357 L 714.866 356.357 C 715.473 356.357 716.055 356.598 716.485 357.027 C 716.914 357.456 717.155 358.039 717.155 358.646 L 717.155 367.8 C 717.155 369.064 716.13 370.089 714.866 370.089 L 690.436 370.089 C 689.172 370.089 688.147 369.064 688.147 367.8 L 688.147 358.646 Z " fill-rule="evenodd" fill="none" vector-effect="non-scaling-stroke" stroke-width="1" stroke="rgb(0,0,0)" stroke-linejoin="round" stroke-linecap="butt" stroke-miterlimit="10"/><path d=" M 252.614 210.551 L 305.717 210.551 L 305.717 293.638 L 252.614 293.638 L 252.614 210.551 Z " fill-rule="evenodd" fill="none"/><path d=" M 271.474 229.724 Q 271.474 230.364 271.364 231.005 Q 271.27 231.646 271.052 232.239 Q 270.849 232.833 270.52 233.349 Q 270.208 233.864 269.755 234.255 L 271.708 235.896 L 270.724 236.833 L 268.474 234.927 Q 267.989 235.067 267.427 235.067 Q 266.692 235.067 266.114 234.849 Q 265.536 234.614 265.083 234.239 Q 264.645 233.849 264.317 233.333 Q 263.989 232.817 263.77 232.224 Q 263.567 231.63 263.458 230.989 Q 263.364 230.349 263.349 229.724 L 263.349 228.724 Q 263.364 228.099 263.458 227.458 Q 263.567 226.817 263.77 226.224 Q 263.989 225.63 264.302 225.114 Q 264.63 224.599 265.067 224.208 Q 265.52 223.817 266.099 223.599 Q 266.692 223.38 267.411 223.38 Q 268.145 223.38 268.724 223.599 Q 269.302 223.817 269.755 224.208 Q 270.208 224.583 270.52 225.114 Q 270.849 225.63 271.052 226.224 Q 271.27 226.817 271.364 227.458 Q 271.474 228.099 271.474 228.724 L 271.474 229.724 Z  M 270.036 228.708 Q 270.036 228.286 269.989 227.817 Q 269.942 227.349 269.833 226.911 Q 269.724 226.458 269.52 226.052 Q 269.333 225.646 269.036 225.333 Q 268.755 225.021 268.349 224.849 Q 267.958 224.661 267.411 224.661 Q 266.88 224.661 266.474 224.849 Q 266.083 225.036 265.786 225.349 Q 265.505 225.646 265.317 226.052 Q 265.13 226.458 265.005 226.911 Q 264.895 227.364 264.833 227.833 Q 264.786 228.286 264.786 228.708 L 264.786 229.724 Q 264.786 230.146 264.833 230.614 Q 264.895 231.083 265.005 231.536 Q 265.13 231.989 265.317 232.396 Q 265.505 232.802 265.786 233.114 Q 266.083 233.427 266.489 233.614 Q 266.895 233.786 267.427 233.786 Q 267.958 233.786 268.364 233.614 Q 268.77 233.427 269.052 233.114 Q 269.349 232.802 269.536 232.396 Q 269.724 231.989 269.833 231.536 Q 269.942 231.083 269.989 230.63 Q 270.036 230.161 270.036 229.724 L 270.036 228.708 Z " fill="rgb(255,255,255)"/><path d=" M 291.808 210.549 L 344.911 210.549 L 344.911 293.635 L 291.808 293.635 L 291.808 210.549 Z " fill-rule="evenodd" fill="none"/><path d=" M 308.808 232.83 L 309.683 224.534 L 311.043 224.534 L 309.668 235.909 L 308.183 235.909 L 306.73 227.33 L 305.246 235.909 L 303.762 235.909 L 302.387 224.534 L 303.762 224.534 L 304.621 232.83 L 306.09 224.534 L 307.34 224.534 L 308.808 232.83 Z " fill="rgb(255,255,255)"/><path d=" M 371.262 210.551 L 424.365 210.551 L 424.365 293.638 L 371.262 293.638 L 371.262 210.551 Z " fill-rule="evenodd" fill="none"/><path d=" M 386.387 231.271 L 384.122 231.271 L 384.122 235.911 L 382.684 235.911 L 382.684 224.536 L 386.012 224.536 Q 386.809 224.552 387.512 224.771 Q 388.216 224.974 388.747 225.396 Q 389.278 225.817 389.575 226.458 Q 389.872 227.083 389.872 227.942 Q 389.872 228.505 389.716 228.974 Q 389.559 229.427 389.278 229.802 Q 388.997 230.177 388.606 230.474 Q 388.216 230.755 387.747 230.958 L 390.153 235.817 L 390.153 235.911 L 388.622 235.911 L 386.387 231.271 Z  M 384.122 230.083 L 386.059 230.083 Q 386.544 230.067 386.966 229.927 Q 387.403 229.786 387.716 229.521 Q 388.044 229.239 388.231 228.849 Q 388.419 228.442 388.419 227.927 Q 388.419 227.38 388.231 226.974 Q 388.059 226.567 387.731 226.286 Q 387.419 226.005 386.981 225.864 Q 386.544 225.724 386.012 225.724 L 384.122 225.724 L 384.122 230.083 Z " fill="rgb(255,255,255)"/><path d=" M 331.454 210.55 L 384.556 210.55 L 384.556 293.636 L 331.454 293.636 L 331.454 210.55 Z " fill-rule="evenodd" fill="none"/><path d=" M 349.079 230.644 L 344.329 230.644 L 344.329 234.675 L 349.86 234.675 L 349.86 235.91 L 342.876 235.91 L 342.876 224.535 L 349.798 224.535 L 349.798 225.769 L 344.329 225.769 L 344.329 229.425 L 349.079 229.425 L 349.079 230.644 Z " fill="rgb(255,255,255)"/><path d=" M 411.074 210.555 L 464.176 210.555 L 464.176 293.642 L 411.074 293.642 L 411.074 210.555 Z " fill-rule="evenodd" fill="none"/><path d=" M 431.105 225.774 L 427.589 225.774 L 427.589 235.915 L 426.183 235.915 L 426.183 225.774 L 422.667 225.774 L 422.667 224.54 L 431.105 224.54 L 431.105 225.774 Z " fill="rgb(255,255,255)"/><path d=" M 450.879 210.552 L 503.982 210.552 L 503.982 293.639 L 450.879 293.639 L 450.879 210.552 Z " fill-rule="evenodd" fill="none"/><path d=" M 466.598 230.241 L 469.192 224.537 L 470.832 224.537 L 467.286 231.662 L 467.27 235.912 L 465.926 235.912 L 465.895 231.662 L 462.364 224.537 L 464.004 224.537 L 466.598 230.241 Z " fill="rgb(255,255,255)"/><path d=" M 194.509 405.252 L 773.249 405.252 L 773.249 522.039 L 194.509 522.039 L 194.509 405.252 Z " fill-rule="evenodd" fill="none"/><path d=" M 475.045 136.759 C 475.045 129.535 472.361 121.794 475.045 115.087 C 478.064 107.542 490.309 108.084 495.512 101.843 C 501.06 95.187 504.749 84.602 501.533 76.556" fill-rule="evenodd" fill="none"/><path d=" M 475.045 136.759 C 475.045 129.535 473 109.131 486.131 96 C 499.5 82.5 532.5 91 544.948 76.556 C 563.504 58 557.164 18 557.164 -15" fill-rule="evenodd" fill="none" vector-effect="non-scaling-stroke" stroke-width="5" stroke="rgb(102,102,102)" stroke-linejoin="round" stroke-linecap="butt" stroke-miterlimit="10"/></g></g></g></svg>